<?xml version="1.0" encoding="UTF-8"?>
<svg xmlns="http://www.w3.org/2000/svg" data-bbox="0 0 2048 1266" height="1280" width="1280" viewBox="0 0 2048 1266" data-type="shape">
  <g>
    <path d="M932 856h17l10 3 7 5 6 10 1 4v13l-4 11-7 12-11 13-6 7-8 7-14 11-17 11-11 5-9 1-8-3-7-8-2-5v-10l3-5 6 1 13-8 16-12 15-14 8-8 2-3v-4l-9 1-12 6-13 10-12 11-12 12-9 11-11 13-15 20-16 23-34 51-15 22-12 17-4 6 18 4 42 10 36 7 30 4 31 1v-11l3-16 6-16 9-16 9-12 14-15 11-10 13-10 13-8 14-7 14-4 8-1h9l12 3 7 5 3 3 6-7 5-2h12l6 3 3 4v7l-4 7-6 9-10 18-12 25-9 23-4 16v9l2 5h8l8-4 14-11 6-9 15-26 15-25 19-32 10-16 6-7 10-5 9-2h10l2 2v9l-8 17-12 18 5-4 14-14 11-9 14-10 13-6 14-3 10 1 7 4 4 5 1 2v10l-5 12-12 20-10 14-11 17-9 15-9 17-3 10v6l5 5h10l14-7 11-9 5-5 5-15 9-17 10-14 12-13 9-9 11-9 13-10 18-11 16-8 17-6 17-3 11 1 6 3 3 3 8-6 5-2 8-1h9l5 3 2 10-8 10-16 24-17 26-15 24-17 28-15 26-3 6 11-9 13-11 19-14 20-13 10-6 10-21 14-24 15-27 10-15 8-9 2-1h9l8 7 1 2v6l-10 20-9 16-15 28-13 27-4 12v5l6-1 12-9 17-16 9-10 16-17 9-11 10-11 11-15 10-18 11-14 12-5 14-1 4 4 1 5-8 16-16 28-9 16-13 29-7 21-1 5v7l1 3 7 1 12-6 10-9 8-8 6-18 10-19 10-13 11-12 7-7 11-9 13-10 16-9 13-5 15-3h10l12 3 7 5 1 4 5-5 5-4 3-1h12l6 3 3 4v7l-7 11-10 17-12 24-10 24-5 17-1 5v10l2 4h8l8-4 10-8 6-5 6-18 9-17 10-14 11-12 11-11 11-9 15-11 15-9 16-8 17-6 17-3 11 1 6 3 3 3 8-6 5-2 8-1h9l4 2 3 8-1 4-1 2h-2l-2 4-26 39-16 25-16 26-13 22-14 24 4-2 10-9 17-13 15-11 17-11 16-9 11-4 10-5h3v-2l-5-2-4-5-2-7v-16l5-12 8-10 8-8 10-7 23-12 21-7 9-2 9-1h10l10 3 5 4 1 2v9l-4 10-9 10-12 6-4 1h-9l-3-2-1-8v-3l-10 4-13 8-14 10-8 7-3 6 1 1h7l22-6h6l5 4 4 7-1 7-7 6-8 4-12 5-18 11-14 10-5 6-1 6 3 6 7 4 4 1h22l15-5 15-9 14-10 16-13 6-4h5l2 3 1 13-2 12-9 9-18 13-23 12-15 5-10 2-14 1-15-1-15-4-12-7-7-8-3-7-5 2-33 22-16 12-11 9-13 12-11 11-9 11-13 16-14 19-11 17-5 6-7 3h-11l-10-4-5-7-1-4v-13l4-13 6-11 8-10 9-10 12-12 11-9 13-11 8-11 24-38 6-10-12 12-11 9-13 10-19 11-9 3h-12l-10-3-6-4-4-4-14 9-12 5-5 1-14-1-10-5-6-7-4-9-1-5v-10l2-12-9 11-10 10-14 11-14 9-11 5-7 2h-11l-9-3-6-4-7-8-1-4-5 3-12 9-13 6-9 2h-8l-11-3-8-6-4-6-2-7v-15l3-12 2-7-9 11-11 12-16 16-15 11-13 6-5 1h-9l-10-4-7-8-3-7-1-6-33 22-16 12-13 11-10 9-12 12-9 11-13 16-14 19-11 17-5 6-7 3h-11l-8-3-5-5-3-7v-13l4-13 6-11 8-10 11-12 9-9 11-9 14-12 8-11 14-22 12-19 4-7-13 13-11 9-15 11-16 9-9 3h-12l-10-3-6-4-4-5v-2l-15 10-10 5-7 2h-19l-12-6-8-8-3-5-2-13 2-13 5-15 11-23 15-24 12-18 4-8-10 6-13 11-7 7-8 7-21 21-7 8-8 8-7 8-11 13-13 17-11 14-7 7h-8l-8-2-12 6-11 3-14-1-10-5-6-7-4-9-1-6v-8l2-12-14 15-12 11-16 11-16 8-7 2h-11l-11-4-8-7h-4l-5 5-7 3-12 2h-34l-26-3-31-6-64-18-8-2-13 10-15 9-17 7-16 4-15 2h-22l-17-3-9-4-18 6h-15l-10-3-10-6-6-8-3-8v-19l4-16 8-20 13-27 13-23 15-26 16-26 2-3-16 1-10 1h-14l-9-4-2-3 1-5 8-12 12-8 9-3 40-2 5-1 8-12 10-14 11-12 7-2h10l8 3 1 1-1 7-8 14-9 14v1l24-1 7 2 11 12 1 6-5 6-8 3-51 5-3 1-13 21-14 24-14 25-10 18-14 27-8 19-2 11v7l4 4h9l1-13 4-9 7-8 10-6 15-5 18-3h35l30 5h6l9-10 13-18 20-30 16-25 23-34 14-19 18-22 12-13 21-21 14-11 15-10 15-7 17-5zm450 153-17 5-18 8-14 8-14 10-13 12-11 12-13 18-8 14-4 11-1 4v7l7-1 13-9 17-14 12-11 8-7 17-17 7-8 12-13 9-11 11-13 3-5zm494 0-17 5-18 8-14 8-14 10-13 12-11 12-11 15-9 15-5 12-1 5v7l7-1 14-10 11-9 14-12 15-14 12-12 7-8 12-13 9-11 12-14 3-5zm-835 8-15 4-14 7-14 10-10 9-6 5-7 8-10 13-8 13-8 15-3 10 1 6 2 2 6-1 11-8 11-9 14-12 15-14 8-8 15-20 14-19 7-10v-1zm652 0-15 4-16 8-12 9-10 9-7 6-7 8-12 16-10 18-5 11-1 9 1 3 5 1 9-5 16-13 14-12 15-14 8-8 12-16 14-19 10-14v-1zm-1043 91-7 9v3h16l15-4 11-5v-1l-16-2z"></path>
    <path d="M688 327h273l11 4 9 6 7 7 5 9 3 8 1 7v263l-3 12-6 11-8 8-10 6-11 3H689l-10-3-10-6-5-4-7-10-4-10-1-4V363l4-12 8-11 7-6 10-5z"></path>
    <path d="M1095 181h257l12 2 10 4 9 7 7 9 4 8 2 8v179l-4 12-6 9-4 5-11 7-7 3-5 1h-271l-10-3-10-6-8-8-5-8-3-9-1-6V221l3-12 6-10 5-6 10-7 12-4z"></path>
    <path d="M823 54h130l12 2 14 7 9 9 5 8 3 9 1 7v136l-3 12-5 9-8 9-10 6-8 3-4 1H817l-13-4-9-6-8-8-6-12-2-8V92l4-13 8-11 7-6 10-5 6-2z"></path>
    <path d="M1088 490h144l12 4 9 6 8 8 6 12 2 8v141l-4 13-6 9-4 5-11 7-11 4h-145l-10-3-10-6-8-8-5-8-3-9-1-6V529l3-11 4-8 9-10 9-6z"></path>
    <path d="M1089 0h142l13 4 10 7 8 9 5 10 2 9v50l-4 13-7 10-9 8-10 5-9 2h-140l-11-3-9-5-9-8-6-10-3-8-1-6V40l3-12 5-9 9-10 14-7z"></path>
    <path d="M252 847h14l9 3 6 8 1 7-4 6-9 8-14 8-18 6-25 4-13 16-14 19-13 18-14 20-16 24 30 3 8 4 2 3v6l-18 20h-45l-10 15-14 22-11 17-16 25-14 22-9 14-4 4-3 1h-8l-16-4-4-4 2-11 9-16 16-25 26-38 11-16 4-6-3 1-48 3-24 3-3-3v-8l6-10 7-9 8-7 9-2 39-3 34-1 8-11 16-24 13-18 14-19 12-15-37 4-15 1H56l-20-3-15-5-9-6-6-8-2-8 1-8 6-9 10-6 8-2h19l4 2v2l-11 3-5 6 2 4 12 3 26 2h64l35-3 23-3 7-3 12-9 16-9 13-4z"></path>
    <path d="m244 983 9 1 7 6 3 5v6l-8 16-16 29-14 24-11 19-6 10-4 8-2 10 1 3 8 2 10-2 10-5 11-9 11-11 13-23 15-25 19-32 10-16 8-9 8-4 9-2h11l2 3v7l-5 12-11 18-5 8 14-15 8-7 15-12 16-9 12-4 11-1 8 2 5 3 4 7v11l-5 12-12 20-11 16-6 7-4 2h-9l-5-4-3-7v-9l4-11 7-11 3-4-11 7-11 10-8 7-38 38-7 8-11 12-11 14-12 15-9 12-5 4h-8l-6-2-6 1-14 6-12 3h-12l-13-4-9-7-7-8-3-7v-12l5-15 10-20 14-24 13-22-1-5-6-7 1-5 9-10 8-8 15-11z"></path>
    <path d="M525 976h11l12 2 8 5 3 6v12l-3 9-8 8-14 7-3 1h-13l-6-5 1-7 3-5-17 3-19 7-13 7-14 10-9 8-2 5 5 3 36 8 20 6 12 7 7 7 4 7 1 4v8l-4 11-8 11-12 10-17 9-21 8-19 4h-22l-14-3-9-6-5-7-1-3v-11l3-10 6-8 6-3 9 1 2 2 1 9 4 5 5 2 18-1 18-4 13-5 9-6 1-1v-6l-8-4-23-6-26-7-12-6-5-4-5-10v-13l4-12 8-11 7-8 13-10 18-10 20-9 22-7 13-3z"></path>
    <path d="M288 917h9l6 4 2 8-2 9-6 10-9 9-7 4-4 1h-9l-5-3-2-4v-11l4-9 6-8 7-6z"></path>
  </g>
</svg>
