<?xml version="1.0" encoding="UTF-8"?>
<svg xmlns="http://www.w3.org/2000/svg" xmlns:xlink="http://www.w3.org/1999/xlink" width="1200" zoomAndPan="magnify" viewBox="0 0 900 899.99999" height="1200" preserveAspectRatio="xMidYMid meet" version="1.2">
  <defs>
    <clipPath id="6a85a36f25">
      <path d="M 230.242188 517.648438 L 269.191406 517.648438 L 269.191406 560.085938 L 230.242188 560.085938 Z M 230.242188 517.648438 "></path>
    </clipPath>
    <clipPath id="50e9d904d9">
      <path d="M 385.53125 320.710938 L 474.933594 320.710938 L 474.933594 446.304688 L 385.53125 446.304688 Z M 385.53125 320.710938 "></path>
    </clipPath>
    <clipPath id="094b18e4d7">
      <path d="M 558.371094 315.132812 L 810 315.132812 L 810 564 L 558.371094 564 Z M 558.371094 315.132812 "></path>
    </clipPath>
    <clipPath id="2f3435f302">
      <path d="M 623 315.132812 L 786 315.132812 L 786 411 L 623 411 Z M 623 315.132812 "></path>
    </clipPath>
  </defs>
  <g id="7eccb18a72">
    <path style=" stroke:none;fill-rule:nonzero;fill:#4db846;fill-opacity:1;" d="M 220.65625 495.078125 L 201.429688 520.902344 C 197.355469 526.378906 198.5 534.191406 203.972656 538.265625 L 205.324219 539.269531 C 207.539062 540.917969 210.132812 541.714844 212.710938 541.714844 C 216.503906 541.714844 220.261719 539.988281 222.6875 536.726562 L 241.910156 510.902344 C 245.988281 505.429688 244.84375 497.617188 239.367188 493.542969 L 238.019531 492.535156 C 235.804688 490.886719 233.207031 490.09375 230.632812 490.09375 C 226.835938 490.09375 223.082031 491.820312 220.65625 495.078125 "></path>
    <g clip-rule="nonzero" clip-path="url(#6a85a36f25)">
      <path style=" stroke:none;fill-rule:nonzero;fill:#4db846;fill-opacity:1;" d="M 245.644531 522.199219 L 232.535156 539.808594 C 228.894531 544.695312 229.917969 551.671875 234.808594 555.3125 L 238.289062 557.902344 C 240.265625 559.375 242.582031 560.085938 244.882812 560.085938 C 248.273438 560.085938 251.625 558.542969 253.792969 555.632812 L 266.902344 538.023438 C 270.539062 533.136719 269.515625 526.160156 264.628906 522.519531 L 261.148438 519.929688 C 259.167969 518.457031 256.851562 517.746094 254.550781 517.746094 C 251.164062 517.746094 247.8125 519.289062 245.644531 522.199219 "></path>
    </g>
    <path style=" stroke:none;fill-rule:nonzero;fill:#4db846;fill-opacity:1;" d="M 175.542969 464.703125 L 170.253906 460.769531 C 168.480469 459.445312 166.398438 458.808594 164.332031 458.808594 C 161.285156 458.808594 158.273438 460.191406 156.324219 462.808594 L 147.503906 474.660156 C 144.234375 479.054688 145.152344 485.320312 149.542969 488.589844 L 154.832031 492.527344 C 156.605469 493.847656 158.6875 494.484375 160.753906 494.484375 C 163.800781 494.484375 166.8125 493.101562 168.761719 490.484375 L 177.582031 478.632812 C 180.851562 474.242188 179.933594 467.972656 175.542969 464.703125 "></path>
    <path style=" stroke:none;fill-rule:nonzero;fill:#4db846;fill-opacity:1;" d="M 214.652344 466.539062 C 212.285156 464.773438 209.507812 463.921875 206.753906 463.925781 C 202.691406 463.925781 198.675781 465.769531 196.082031 469.257812 L 172.621094 500.769531 C 168.261719 506.628906 169.484375 514.984375 175.339844 519.34375 C 177.707031 521.105469 180.484375 521.957031 183.238281 521.957031 C 186.902344 521.957031 190.527344 520.457031 193.109375 517.601562 C 193.496094 516.9375 193.925781 516.292969 194.394531 515.664062 L 205.535156 500.699219 L 213.617188 489.839844 C 214.171875 489.09375 214.777344 488.390625 215.425781 487.726562 L 217.375 485.109375 C 221.730469 479.253906 220.507812 470.898438 214.652344 466.539062 "></path>
    <path style=" stroke:none;fill-rule:nonzero;fill:#4db846;fill-opacity:1;" d="M 148.554688 319.492188 L 91.996094 420.699219 C 90.203125 423.90625 91.351562 427.960938 94.558594 429.753906 L 114.09375 440.667969 C 117.300781 442.460938 121.355469 441.316406 123.144531 438.109375 L 179.707031 336.898438 C 181.496094 333.691406 180.351562 329.640625 177.144531 327.847656 L 157.609375 316.929688 C 154.402344 315.136719 150.347656 316.285156 148.554688 319.492188 "></path>
    <g clip-rule="nonzero" clip-path="url(#50e9d904d9)">
      <path style=" stroke:none;fill-rule:nonzero;fill:#4db846;fill-opacity:1;" d="M 386.382812 341.578125 L 442.941406 442.789062 C 444.734375 445.996094 448.785156 447.140625 451.992188 445.347656 L 471.527344 434.433594 C 474.734375 432.640625 475.882812 428.589844 474.089844 425.378906 L 417.53125 324.171875 C 415.738281 320.964844 411.6875 319.816406 408.480469 321.609375 L 388.945312 332.527344 C 385.738281 334.320312 384.589844 338.371094 386.382812 341.578125 "></path>
    </g>
    <path style=" stroke:none;fill-rule:nonzero;fill:#4db846;fill-opacity:1;" d="M 409.464844 478.695312 C 409.621094 474.023438 407.433594 469.582031 403.710938 466.757812 L 374.359375 444.515625 C 363.75 437.039062 350.515625 428.472656 335.027344 419.058594 C 313.1875 405.78125 292.605469 394.292969 283.0625 389.046875 C 281.574219 388.226562 279.828125 388.011719 278.183594 388.441406 L 267.457031 391.253906 C 265.882812 391.667969 264.507812 392.636719 263.589844 393.984375 L 263.578125 394.003906 C 260.605469 398.359375 257.292969 402.363281 253.742188 405.894531 C 249.574219 410.039062 245.148438 413.480469 240.59375 416.125 C 235.128906 419.292969 229.503906 421.292969 223.871094 422.066406 C 222.625 422.234375 221.371094 422.320312 220.148438 422.320312 C 215.726562 422.320312 211.609375 421.1875 208.242188 419.046875 C 203.925781 416.296875 201.15625 412.273438 200.234375 407.40625 C 199.167969 401.777344 200.628906 395.347656 204.691406 387.75 C 207.550781 382.398438 211.121094 377.507812 213.726562 373.933594 C 214.367188 373.058594 214.917969 372.300781 215.359375 371.671875 C 217.15625 369.121094 219.246094 366.203125 221.59375 363.152344 C 222.191406 362.371094 221.558594 361.253906 220.582031 361.363281 C 215.65625 361.929688 204.515625 361.375 186.988281 350.511719 C 185.429688 349.546875 183.382812 350.078125 182.488281 351.679688 L 133.902344 438.617188 C 132.882812 440.441406 133.128906 442.714844 134.519531 444.277344 L 147.398438 458.769531 C 147.578125 458.96875 147.777344 459.148438 147.992188 459.304688 L 149.285156 457.570312 C 151.058594 455.191406 153.402344 453.246094 156.0625 451.945312 C 158.621094 450.695312 161.480469 450.035156 164.332031 450.03125 C 166.300781 450.03125 168.246094 450.339844 170.109375 450.945312 C 172.046875 451.574219 173.859375 452.511719 175.496094 453.730469 L 180.785156 457.664062 C 182.808594 459.171875 184.480469 461.039062 185.75 463.214844 C 186.050781 463.722656 186.324219 464.246094 186.570312 464.777344 C 186.898438 465.488281 187.867188 465.589844 188.332031 464.960938 L 189.035156 464.015625 C 191.117188 461.21875 193.871094 458.929688 197.003906 457.398438 C 200.015625 455.925781 203.441406 455.148438 206.730469 455.148438 C 209.035156 455.148438 211.347656 455.507812 213.546875 456.222656 C 215.824219 456.960938 217.964844 458.0625 219.894531 459.496094 C 222.273438 461.269531 224.242188 463.464844 225.738281 466.023438 C 227.171875 468.480469 228.113281 471.160156 228.527344 473.988281 C 228.8125 475.953125 228.839844 477.917969 228.601562 479.863281 C 228.507812 480.65625 229.132812 481.359375 229.929688 481.328125 C 230.167969 481.320312 230.40625 481.316406 230.648438 481.316406 C 232.839844 481.316406 235.066406 481.664062 237.175781 482.347656 C 239.363281 483.058594 241.40625 484.117188 243.257812 485.496094 L 244.609375 486.503906 C 251.226562 491.429688 254.140625 499.511719 252.824219 507.132812 C 252.65625 508.101562 253.417969 508.980469 254.402344 508.972656 C 254.453125 508.972656 254.507812 508.972656 254.5625 508.972656 C 256.648438 508.972656 258.707031 509.296875 260.683594 509.9375 C 262.734375 510.605469 264.652344 511.597656 266.386719 512.890625 L 269.871094 515.480469 C 278.664062 522.03125 280.488281 534.46875 273.9375 543.265625 L 272.222656 545.570312 C 271.417969 546.65625 271.605469 548.210938 272.695312 549.015625 C 272.886719 549.152344 273.097656 549.265625 273.320312 549.34375 C 277.226562 550.730469 314.894531 563.523438 325.539062 545.574219 C 326.238281 544.390625 325.761719 542.863281 324.53125 542.257812 L 289.394531 525.078125 C 287.28125 524.042969 286.167969 521.625 286.859375 519.371094 C 287.359375 517.726562 288.789062 516.238281 292.269531 516.089844 C 292.632812 516.074219 293 516.15625 293.328125 516.324219 L 329.464844 535.179688 C 333.523438 537.300781 338.132812 538.1875 342.675781 537.625 C 348.238281 536.933594 354.296875 534.066406 354.828125 524.976562 C 354.964844 522.589844 353.734375 520.332031 351.667969 519.125 L 306.578125 492.855469 C 304.816406 491.828125 303.867188 489.820312 304.203125 487.808594 C 304.519531 485.929688 305.527344 484.015625 308.292969 483.914062 C 309.203125 483.878906 310.097656 484.121094 310.878906 484.578125 L 358.261719 512.117188 C 360.644531 513.5 363.367188 514.171875 366.117188 514.042969 C 370.859375 513.824219 377.773438 512.386719 380.503906 506.214844 C 382.90625 500.789062 380.792969 494.421875 375.703125 491.367188 L 323.820312 460.238281 C 322.289062 459.320312 321.390625 457.625 321.507812 455.839844 C 321.664062 453.488281 322.851562 450.828125 327.671875 451.597656 C 328.257812 451.691406 328.820312 451.902344 329.328125 452.207031 L 388.261719 487.335938 C 392.640625 489.945312 398.015625 490.378906 402.699219 488.371094 C 406.1875 486.875 409.285156 484.039062 409.464844 478.695312 "></path>
    <path style=" stroke:none;fill-rule:nonzero;fill:#4db846;fill-opacity:1;" d="M 431.007812 440.789062 L 381.820312 352.777344 C 381.429688 352.074219 380.605469 351.738281 379.835938 351.96875 C 376.300781 353.019531 371.886719 354.089844 371.246094 354.167969 C 369.34375 354.402344 367.4375 354.515625 365.53125 354.515625 C 359.050781 354.515625 352.582031 353.230469 346.464844 351.128906 C 332.214844 346.234375 314.496094 344.824219 298.691406 344.824219 C 287 344.824219 276.355469 345.59375 268.933594 346.292969 C 262.820312 346.871094 256.882812 347.3125 250.957031 349.066406 C 245.386719 350.707031 240.625 354.503906 236.738281 358.707031 C 235.710938 359.820312 234.703125 360.957031 233.714844 362.109375 C 229.730469 366.765625 226.046875 371.734375 222.539062 376.71875 C 217.398438 384.027344 200.984375 404.023438 212.953125 411.640625 C 215.078125 412.992188 217.609375 413.546875 220.148438 413.546875 C 220.996094 413.546875 221.847656 413.484375 222.683594 413.367188 C 232.257812 412.058594 240.835938 406.347656 247.554688 399.667969 C 250.8125 396.429688 253.742188 392.847656 256.328125 389.054688 C 256.773438 388.40625 258.535156 384.519531 259.28125 384.324219 L 275.714844 380.015625 L 281.207031 378.578125 C 281.351562 378.539062 281.503906 378.519531 281.652344 378.519531 C 281.945312 378.519531 282.230469 378.589844 282.492188 378.730469 C 290.960938 383.324219 364.820312 423.828125 407.199219 460.40625 C 407.203125 460.410156 407.207031 460.414062 407.210938 460.417969 C 407.792969 460.917969 408.65625 460.917969 409.25 460.429688 L 430.90625 442.621094 C 431.289062 442.078125 431.328125 441.367188 431.007812 440.789062 "></path>
    <g clip-rule="nonzero" clip-path="url(#094b18e4d7)">
      <path style=" stroke:none;fill-rule:nonzero;fill:#4db846;fill-opacity:1;" d="M 685.609375 563.484375 L 679.113281 563.441406 L 672.761719 563.078125 L 666.464844 562.382812 L 660.292969 561.402344 L 654.148438 560.125 L 648.191406 558.546875 L 642.304688 556.699219 L 636.601562 554.550781 L 631 552.152344 L 625.542969 549.53125 L 620.246094 546.644531 L 615.078125 543.476562 L 610.144531 540.089844 L 605.292969 536.488281 L 600.703125 532.636719 L 596.269531 528.621094 L 592.070312 524.390625 L 588.050781 519.957031 L 584.269531 515.308594 L 580.679688 510.515625 L 577.332031 505.507812 L 574.269531 500.371094 L 571.398438 495.089844 L 568.804688 489.617188 L 566.5 484.011719 L 564.421875 478.289062 L 562.671875 472.457031 L 561.175781 466.46875 L 560.003906 460.371094 L 559.136719 454.203125 L 558.5625 447.902344 L 558.324219 441.554688 L 558.429688 435.160156 L 558.816406 428.890625 L 559.535156 422.667969 L 560.5625 416.535156 L 561.933594 410.515625 L 563.554688 404.59375 L 565.457031 398.800781 L 567.644531 393.128906 L 570.121094 387.585938 L 572.816406 382.179688 L 575.835938 376.925781 L 579.015625 371.824219 L 582.496094 366.90625 L 586.175781 362.164062 L 590.078125 357.566406 L 594.160156 353.179688 L 598.5 348.957031 L 603.035156 345.011719 L 607.730469 341.214844 L 612.640625 337.660156 L 617.703125 334.355469 L 622.941406 331.265625 L 628.300781 328.40625 L 633.847656 325.820312 L 639.546875 323.488281 L 645.34375 321.421875 L 651.304688 319.667969 L 657.355469 318.179688 L 663.503906 316.957031 L 669.820312 316.050781 L 676.140625 315.457031 L 682.632812 315.179688 L 689.074219 315.234375 L 695.460938 315.621094 L 701.742188 316.257812 L 707.953125 317.261719 L 714.035156 318.554688 L 720.050781 320.117188 L 725.878906 321.980469 L 731.605469 324.089844 L 737.207031 326.488281 L 742.679688 329.171875 L 747.976562 332.058594 L 753.109375 335.203125 L 758.097656 338.578125 L 762.890625 342.1875 L 767.503906 346.003906 L 771.914062 350.054688 L 776.148438 354.3125 L 780.167969 358.746094 L 783.972656 363.359375 L 787.539062 368.1875 L 790.875 373.132812 L 793.976562 378.292969 L 796.820312 383.613281 L 799.402344 389.027344 L 801.746094 394.652344 L 803.785156 400.355469 L 805.546875 406.246094 L 807.007812 412.210938 L 808.238281 418.292969 L 809.105469 424.460938 L 809.644531 430.738281 L 809.898438 437.148438 L 809.816406 443.503906 L 809.40625 449.8125 L 808.648438 456.011719 L 807.621094 462.144531 L 806.308594 468.148438 L 804.691406 474.070312 L 802.726562 479.878906 L 800.535156 485.546875 L 798.125 491.078125 L 795.367188 496.496094 L 792.410156 501.742188 L 789.191406 506.820312 L 785.75 511.757812 L 782.046875 516.535156 L 778.167969 521.097656 L 774.023438 525.5 L 769.703125 529.683594 L 765.1875 533.691406 L 760.476562 537.425781 L 755.605469 541.003906 L 750.519531 544.34375 L 745.277344 547.433594 L 739.882812 550.273438 L 734.335938 552.859375 L 728.695312 555.175781 L 722.867188 557.21875 L 716.917969 559.035156 L 710.863281 560.523438 L 704.679688 561.722656 L 698.425781 562.613281 L 692.042969 563.21875 L 685.609375 563.484375 "></path>
    </g>
    <path style=" stroke:none;fill-rule:evenodd;fill:#ffffff;fill-opacity:1;" d="M 688.46875 516.96875 L 688.007812 518.296875 L 687.832031 524.128906 L 686.628906 526.8125 L 682.222656 528.390625 L 680.328125 532.105469 L 680.414062 537.527344 L 683.859375 540.144531 L 689.046875 543.273438 L 694.734375 548.855469 L 698.449219 553.203125 L 701.394531 553.367188 L 701.683594 556.574219 L 700.25 559.789062 L 700.777344 562 L 701.097656 562.253906 L 713.847656 559.730469 L 726.148438 556.035156 L 737.988281 551.078125 L 751.964844 543.367188 L 764.339844 534.3125 L 764.554688 530.644531 L 766.671875 525.1875 L 770.53125 519.730469 L 772.703125 516.496094 L 769.5 514.082031 L 767.785156 513.839844 L 763.648438 515.648438 L 755.574219 517.488281 L 748.960938 518.363281 L 743.523438 512.058594 L 734.929688 512.222656 L 728.566406 511.125 L 721.183594 508.027344 L 715.3125 509.375 L 707.257812 509.507812 L 704.089844 511.019531 L 698.179688 508.949219 L 694.273438 510.742188 L 690.902344 513.484375 L 689.019531 515.425781 L 685.984375 514.792969 L 681.328125 514.386719 L 677.371094 511.511719 L 676.628906 509.539062 L 677.796875 506.089844 L 678.027344 503.15625 L 675.300781 501.203125 L 671.144531 500.066406 L 666.496094 500.132812 L 665.957031 497.929688 L 667.402344 495.1875 L 668.09375 490.507812 L 665.351562 488.855469 L 661.703125 490.125 L 660.257812 492.605469 L 657.59375 493.398438 L 654.128906 492.222656 L 649.421875 488.402344 L 648.902344 483.492188 L 649.554688 479.054688 L 653.433594 473.820312 L 658.566406 472.742188 L 661.761719 473.175781 L 663.953125 474.386719 L 666.160156 474.089844 L 668.621094 472.808594 L 672.769531 473.203125 L 676.699219 474.878906 L 679.46875 478.996094 L 681.691406 482.15625 L 684.136719 481.386719 L 683.367188 477.46875 L 681.835938 474.28125 L 682.539062 470.335938 L 684.445312 467.101562 L 689.277344 463.597656 L 692.183594 461.085938 L 692.394531 456.429688 L 694.3125 451.203125 L 696.699219 447.699219 L 698.410156 447.199219 L 699.382812 444.734375 L 701.761719 441 L 703.957031 439.96875 L 706.167969 441.152344 L 707.863281 439.179688 L 711.519531 437.140625 L 714.175781 435.617188 L 713.167969 433.164062 L 709.5 433.742188 L 707.785156 433.242188 L 707.527344 430.585938 L 705.0625 429.882812 L 702.636719 431.867188 L 699.960938 433.164062 L 699.683594 431.953125 L 702.347656 429.179688 L 706.71875 426.898438 L 709.433594 426.609375 L 713.097656 425.042969 L 714.273438 422.335938 L 713.003906 418.890625 L 709.296875 414.539062 L 702.609375 409.488281 L 698.671875 409.0625 L 696.46875 408.632812 L 694.234375 405.722656 L 687.613281 402.894531 L 685.15625 403.664062 L 685.1875 407.851562 L 685.496094 413.261719 L 687.246094 415.1875 L 685.8125 417.410156 L 685.15625 422.105469 L 684.457031 426.3125 L 681.722656 423.875 L 679.757812 420.71875 L 679.460938 417.042969 L 676.253906 415.617188 L 671.328125 414.472656 L 669.566406 411.816406 L 670 406.136719 L 672.90625 401.652344 L 677.507812 397.167969 L 681.636719 394.117188 L 683.53125 391.652344 L 681.316406 389.238281 L 678.390625 390.277344 L 675.195312 389.324219 L 674.65625 386.117188 L 674.367188 383.183594 L 672.175781 383.222656 L 671.511719 387.4375 L 669.539062 389.179688 L 667.863281 387.976562 L 667.765625 382.816406 L 666.503906 379.429688 L 663.78125 377.984375 L 661.558594 374.570312 L 657.890625 374.886719 L 655.707031 376.90625 L 658.421875 379.285156 L 658.96875 382.230469 L 662.175781 384.636719 L 661.722656 387.851562 L 651.808594 380.160156 L 646.640625 375.578125 L 643.898438 371.683594 L 643.867188 368.226562 L 642.820312 363.617188 L 640.574219 362.632812 L 636.4375 362.710938 L 634.714844 363.722656 L 632.511719 363.277344 L 630.074219 363.539062 L 629.140625 366.023438 L 628.160156 367.765625 L 623.484375 366.878906 L 620.585938 368.871094 L 618.921875 372.363281 L 617.96875 375.320312 L 615.273438 374.886719 L 612.539062 372.722656 L 613.558594 375.90625 L 617.765625 377.792969 L 622.425781 379.449219 L 626.371094 381.59375 L 627.890625 385.722656 L 628.1875 390.390625 L 626.570312 397.304688 L 624.433594 404.464844 L 624.011719 410.140625 L 624.070312 413.355469 L 624.847656 416.765625 L 621.941406 420.257812 L 619.296875 424.753906 L 616.6875 430.679688 L 615.542969 437.84375 L 614.683594 447.929688 L 615.714844 451.597656 L 617.753906 458.449219 L 619.277344 463.820312 L 621.566406 470.199219 L 624.523438 473.347656 L 627.003906 474.273438 L 624.511719 471.367188 L 623.230469 467.699219 L 622.472656 463.519531 L 621.691406 459.863281 L 623.625 459.34375 L 624.648438 462.269531 L 626.429688 469.375 L 630.210938 476.9375 L 631.25 481.085938 L 630.277344 483.808594 L 632.558594 487.21875 L 636.976562 489.34375 L 643.664062 495.390625 L 647.8125 497.035156 L 654.234375 499.113281 L 661.585938 502.195312 L 665.3125 504.609375 L 668.765625 507.707031 L 671.539062 513.8125 L 676.949219 515.929688 L 680.414062 517.101562 L 684.320312 516.5625 L 688.46875 516.96875 "></path>
    <path style=" stroke:none;fill-rule:evenodd;fill:#ffffff;fill-opacity:1;" d="M 674.667969 489.191406 L 677.601562 487.890625 L 682.269531 489.027344 L 687.671875 490.671875 L 691.820312 491.078125 L 695.535156 492.761719 L 694.570312 494.726562 L 690.164062 495.3125 L 686.484375 492.644531 L 682.03125 490.5 L 674.667969 489.191406 "></path>
    <path style=" stroke:none;fill-rule:evenodd;fill:#ffffff;fill-opacity:1;" d="M 696.765625 493.945312 L 696.574219 495.917969 L 699.757812 497.121094 L 702.703125 497.542969 L 707.824219 496.726562 L 704.371094 494.78125 L 704.609375 493.578125 L 702.617188 492.859375 L 696.765625 493.945312 "></path>
    <path style=" stroke:none;fill-rule:evenodd;fill:#ffffff;fill-opacity:1;" d="M 715.015625 422.066406 L 716.746094 423.769531 L 719.972656 426.40625 L 723.40625 429.285156 L 724.417969 431.480469 L 719.007812 431.597656 L 715.574219 427.738281 L 714.3125 425.023438 L 715.015625 422.066406 "></path>
    <path style=" stroke:none;fill-rule:evenodd;fill:#ffffff;fill-opacity:1;" d="M 691.992188 402.085938 L 688.804688 401.144531 L 684.878906 400.46875 L 688.765625 397.464844 L 688.949219 393.261719 L 687.1875 390.605469 L 682.519531 389.207031 L 679.324219 387.785156 L 676.101562 383.636719 L 678.757812 381.125 L 682.464844 382.078125 L 687.132812 384.472656 L 691.566406 386.820312 L 693.328125 390.730469 L 694.8125 391.914062 L 698.488281 393.585938 L 700.761719 397.496094 L 698.804688 399.71875 L 698.140625 402.953125 L 695.214844 403.480469 L 691.992188 402.085938 "></path>
    <path style=" stroke:none;fill-rule:evenodd;fill:#ffffff;fill-opacity:1;" d="M 709.835938 398.3125 L 714.261719 401.171875 L 716.246094 402.152344 L 720.644531 400.824219 L 725.976562 398.996094 L 720.816406 397.140625 L 719.085938 394.433594 L 719.519531 389.757812 L 719.902344 381.664062 L 722.820312 378.898438 L 722.773438 374.492188 L 718.074219 369.890625 L 713.128906 366.292969 L 707.199219 364.414062 L 702.300781 361.304688 L 696.640625 361.171875 L 692.261719 362.710938 L 690.078125 365.464844 L 687.613281 365.753906 L 687.390625 363.789062 L 683.945312 363.828125 L 679.816406 365.636719 L 680.566406 368.34375 L 678.671875 373.046875 L 680.683594 375.964844 L 684.582031 378.34375 L 686.265625 372.414062 L 688.179688 370.171875 L 689.480469 374.320312 L 692.90625 377.707031 L 696.109375 379.132812 L 701.078125 382.953125 L 705.292969 386.832031 L 706.34375 394.203125 L 709.308594 395.839844 L 709.835938 398.3125 "></path>
    <path style=" stroke:none;fill-rule:evenodd;fill:#ffffff;fill-opacity:1;" d="M 726.476562 378.101562 L 727.046875 382.257812 L 728.507812 384.472656 L 731.203125 385.636719 L 734.609375 381.664062 L 735.996094 376.695312 L 733.042969 374.539062 L 729.863281 375.578125 L 728.421875 377.542969 L 726.476562 378.101562 "></path>
    <g clip-rule="nonzero" clip-path="url(#2f3435f302)">
      <path style=" stroke:none;fill-rule:evenodd;fill:#ffffff;fill-opacity:1;" d="M 778.414062 357.753906 L 780.164062 361.921875 L 779.960938 366.070312 L 780.972656 369.507812 L 784.4375 371.671875 L 784.195312 374.386719 L 781.289062 375.386719 L 779.335938 375.214844 L 776.679688 376.476562 L 782.089844 378.851562 L 781.375 381.074219 L 776.46875 381.132812 L 776.996094 383.867188 L 778.25 387.246094 L 778.324219 391.199219 L 780.558594 394.839844 L 782.3125 398.265625 L 785.035156 400.699219 L 783.820312 402.394531 L 783.359375 404.136719 L 782.425781 407.878906 L 779.519531 410.132812 L 774.832031 407.265625 L 774.5625 404.539062 L 771.808594 402.144531 L 771.789062 398.699219 L 774.1875 396.175781 L 773.925781 392.527344 L 769.472656 391.363281 L 767.277344 391.402344 L 765.785156 388.96875 L 766.21875 383.289062 L 762.972656 377.207031 L 759.757812 375.039062 L 758.710938 371.160156 L 757.890625 365.753906 L 753.925781 359.890625 L 752.886719 355.492188 L 749.683594 354.328125 L 746.277344 352.414062 L 744.273438 351.21875 L 743.0625 352.488281 L 744.8125 354.414062 L 741.90625 356.667969 L 744.589844 357.351562 L 747.585938 359.535156 L 750.800781 362.683594 L 754.734375 364.828125 L 750.828125 366.609375 L 749.644531 369.101562 L 746.1875 368.410156 L 742.03125 366.28125 L 738.75 360.902344 L 736.265625 358.988281 L 730.636719 356.148438 L 726.429688 354 L 723.472656 349.863281 L 726.84375 347.851562 L 732.964844 346.761719 L 732.214844 344.058594 L 729.75 343.355469 L 729.039062 344.839844 L 724.832031 344.933594 L 725.554688 342.199219 L 722.859375 341.046875 L 721.117188 338.601562 L 716.179688 335.472656 L 708.757812 330.429688 L 707.285156 331.230469 L 705.890625 332.960938 L 702.703125 334 L 700.703125 333.058594 L 697.027344 332.394531 L 692.15625 332.738281 L 689.710938 334.242188 L 684.589844 335.058594 L 679.933594 334.394531 L 676.726562 333.222656 L 676.226562 330.777344 L 671.296875 330.621094 L 669.375 332.394531 L 664.242188 332.730469 L 659.585938 333.796875 L 659.625 336.472656 L 657.1875 337.976562 L 652.050781 338.582031 L 650.125 340.09375 L 650.875 342.539062 L 648.679688 343.828125 L 642.570312 344.65625 L 642.117188 346.867188 L 641.914062 349.613281 L 639.949219 350.835938 L 636.574219 354.355469 L 634.136719 356.851562 L 631.007812 359.382812 L 627.09375 360.171875 L 628.0625 358.6875 L 629.980469 355.714844 L 629.449219 353.980469 L 626.300781 354.050781 L 624.5625 351.605469 L 623.039062 349.148438 L 625.457031 346.4375 L 628.101562 344.175781 L 630.304688 343.886719 L 632.269531 340.160156 L 631.703125 336.003906 L 634.636719 334.703125 L 638.746094 332.683594 L 638.960938 328.023438 L 636.714844 326.050781 L 634.511719 325.347656 L 645.917969 321.257812 L 655.503906 318.589844 L 664.8125 316.78125 L 676.46875 315.453125 L 686.832031 315.195312 L 698.96875 315.992188 L 714.042969 318.5625 L 728.769531 323 L 738.804688 327.332031 L 749.171875 332.808594 L 757.929688 338.523438 L 766.152344 344.695312 L 773.371094 351.480469 L 778.210938 356.589844 L 778.414062 357.753906 "></path>
    </g>
    <path style=" stroke:none;fill-rule:evenodd;fill:#ffffff;fill-opacity:1;" d="M 749.941406 372.777344 L 747.746094 373.800781 L 748.71875 375.972656 L 751 379.382812 L 751.75 381.828125 L 752.78125 385.492188 L 756.257812 388.390625 L 758.671875 388.59375 L 757.691406 386.417969 L 754.6875 383.761719 L 754.4375 382.25 L 757.402344 383.472656 L 760.625 385.117188 L 763.5625 386.0625 L 763.542969 383.597656 L 763.648438 383.347656 L 763.746094 383.105469 L 763.8125 382.828125 L 763.820312 382.578125 L 763.832031 382.058594 L 763.773438 381.558594 L 763.667969 381.074219 L 763.582031 380.710938 L 763.503906 380.496094 L 763.476562 380.382812 L 761.511719 379.207031 L 755.359375 376.621094 L 752.648438 375.40625 L 749.941406 372.777344 "></path>
    <path style=" stroke:none;fill-rule:evenodd;fill:#ffffff;fill-opacity:1;" d="M 786.851562 367.390625 L 786.632812 370.640625 L 787.660156 374.308594 L 786.679688 376.300781 L 784.996094 376.351562 L 786.476562 378.785156 L 789.472656 382.625 L 789.761719 387.8125 L 787.074219 387.128906 L 785.351562 387.410156 L 784.9375 393.300781 L 785.253906 398.4375 L 784.542969 400.914062 L 784.824219 405.359375 L 783.378906 407.851562 L 782.472656 411.039062 L 783.964844 415.457031 L 786.488281 421.296875 L 786.296875 425.503906 L 786.160156 434.117188 L 787.238281 441.933594 L 789.269531 448.304688 L 792.523438 455.386719 L 796.738281 460 L 801.675781 461.144531 L 804.542969 456.628906 L 806.488281 453.675781 L 809.152344 452.472656 L 809.800781 444.542969 L 809.875 437.1875 L 809.558594 429.640625 L 808.613281 420.769531 L 806.621094 410.355469 L 804.140625 401.460938 L 801.339844 393.570312 L 797.855469 385.714844 L 794.273438 378.746094 L 789.921875 371.757812 L 786.851562 367.390625 "></path>
  </g>
</svg>
