<?xml version="1.0" encoding="UTF-8"?>
<svg xmlns="http://www.w3.org/2000/svg" xmlns:xlink="http://www.w3.org/1999/xlink" width="1200" zoomAndPan="magnify" viewBox="0 0 900 899.99999" height="1200" preserveAspectRatio="xMidYMid meet" version="1.2">
  <defs>
    <clipPath id="d038915a07">
      <path d="M 384 414 L 417.789062 414 L 417.789062 424 L 384 424 Z M 384 414 "></path>
    </clipPath>
    <clipPath id="bea833a1bc">
      <path d="M 127.667969 414 L 161 414 L 161 424 L 127.667969 424 Z M 127.667969 414 "></path>
    </clipPath>
    <clipPath id="69b7103e67">
      <path d="M 536 272.027344 L 771 272.027344 L 771 628 L 536 628 Z M 536 272.027344 "></path>
    </clipPath>
  </defs>
  <g id="0b189d40d9">
    <path style=" stroke:none;fill-rule:nonzero;fill:#4db846;fill-opacity:1;" d="M 227.808594 555.804688 L 227.808594 557.003906 L 318.351562 557.003906 L 318.351562 555.804688 C 318.351562 548.011719 318.953125 540.816406 320.75 533.019531 L 226.007812 533.019531 C 227.207031 540.816406 227.808594 548.011719 227.808594 555.804688 Z M 227.808594 555.804688 "></path>
    <path style=" stroke:none;fill-rule:nonzero;fill:#4db846;fill-opacity:1;" d="M 227.808594 577.992188 C 227.808594 589.984375 236.203125 599.582031 246.996094 601.980469 C 248.195312 615.171875 258.988281 625.964844 272.78125 625.964844 C 286.570312 625.964844 297.367188 615.171875 298.566406 601.980469 C 309.359375 599.582031 317.753906 589.386719 317.753906 577.992188 L 317.753906 566.601562 L 227.808594 566.601562 Z M 227.808594 577.992188 "></path>
    <path style=" stroke:none;fill-rule:nonzero;fill:#4db846;fill-opacity:1;" d="M 339.941406 351.328125 C 321.949219 333.339844 297.964844 323.746094 272.78125 323.746094 C 247.59375 323.746094 224.210938 333.9375 206.21875 351.929688 C 188.832031 369.917969 178.636719 393.304688 178.636719 418.488281 C 178.636719 440.074219 186.429688 461.664062 200.222656 478.453125 C 211.015625 491.644531 218.8125 506.636719 223.609375 522.828125 L 322.550781 522.828125 C 326.746094 506.636719 335.144531 491.644531 345.335938 478.453125 C 359.726562 461.664062 367.523438 440.074219 367.523438 417.890625 C 367.523438 393.304688 357.929688 369.316406 339.941406 351.328125 Z M 231.40625 382.511719 C 223.007812 392.703125 218.210938 405.296875 218.210938 417.890625 C 218.210938 424.484375 219.410156 431.082031 221.808594 437.675781 L 212.816406 441.273438 C 209.816406 434.078125 208.617188 426.285156 208.617188 417.890625 C 208.617188 402.296875 214.015625 387.90625 224.210938 375.914062 C 233.804688 364.519531 247.59375 356.726562 262.585938 353.726562 L 264.386719 363.320312 C 251.191406 365.71875 239.800781 372.316406 231.40625 382.511719 Z M 231.40625 382.511719 "></path>
    <path style=" stroke:none;fill-rule:nonzero;fill:#4db846;fill-opacity:1;" d="M 267.382812 273.976562 L 276.976562 273.976562 L 276.976562 306.957031 L 267.382812 306.957031 Z M 267.382812 273.976562 "></path>
    <path style=" stroke:none;fill-rule:nonzero;fill:#4db846;fill-opacity:1;" d="M 348.257812 336.082031 L 371.578125 312.761719 L 378.363281 319.546875 L 355.042969 342.867188 Z M 348.257812 336.082031 "></path>
    <path style=" stroke:none;fill-rule:nonzero;fill:#4db846;fill-opacity:1;" d="M 166.582031 517.777344 L 189.902344 494.457031 L 196.6875 501.242188 L 173.367188 524.5625 Z M 166.582031 517.777344 "></path>
    <g clip-rule="nonzero" clip-path="url(#d038915a07)">
      <path style=" stroke:none;fill-rule:nonzero;fill:#4db846;fill-opacity:1;" d="M 384.3125 414.292969 L 417.292969 414.292969 L 417.292969 423.886719 L 384.3125 423.886719 Z M 384.3125 414.292969 "></path>
    </g>
    <g clip-rule="nonzero" clip-path="url(#bea833a1bc)">
      <path style=" stroke:none;fill-rule:nonzero;fill:#4db846;fill-opacity:1;" d="M 127.667969 414.292969 L 160.648438 414.292969 L 160.648438 423.886719 L 127.667969 423.886719 Z M 127.667969 414.292969 "></path>
    </g>
    <path style=" stroke:none;fill-rule:nonzero;fill:#4db846;fill-opacity:1;" d="M 348.265625 501.660156 L 355.050781 494.875 L 378.371094 518.195312 L 371.585938 524.980469 Z M 348.265625 501.660156 "></path>
    <path style=" stroke:none;fill-rule:nonzero;fill:#4db846;fill-opacity:1;" d="M 166.570312 319.980469 L 173.351562 313.195312 L 196.675781 336.515625 L 189.890625 343.300781 Z M 166.570312 319.980469 "></path>
    <g clip-rule="nonzero" clip-path="url(#69b7103e67)">
      <path style=" stroke:none;fill-rule:nonzero;fill:#052657;fill-opacity:1;" d="M 765.050781 383.46875 L 653.574219 271.988281 L 542.09375 383.46875 C 535.105469 390.453125 535.105469 401.78125 542.09375 408.769531 C 549.078125 415.757812 560.410156 415.757812 567.394531 408.769531 L 635.679688 340.488281 L 635.679688 609.941406 C 635.679688 619.824219 643.691406 627.835938 653.574219 627.835938 C 663.453125 627.835938 671.460938 619.824219 671.460938 609.941406 L 671.460938 340.488281 L 739.75 408.769531 C 743.242188 412.261719 747.820312 414.011719 752.398438 414.011719 C 756.976562 414.011719 761.558594 412.261719 765.050781 408.769531 C 772.035156 401.78125 772.035156 390.453125 765.050781 383.46875 "></path>
    </g>
  </g>
</svg>
