<?xml version="1.0" encoding="UTF-8"?>
<svg xmlns="http://www.w3.org/2000/svg" xmlns:xlink="http://www.w3.org/1999/xlink" width="1200" zoomAndPan="magnify" viewBox="0 0 900 899.99999" height="1200" preserveAspectRatio="xMidYMid meet" version="1.2">
  <defs>
    <clipPath id="ba35dc1db3">
      <path d="M 130.816406 466 L 255 466 L 255 769.066406 L 130.816406 769.066406 Z M 130.816406 466 "></path>
    </clipPath>
    <clipPath id="991b582e77">
      <path d="M 302 354 L 426 354 L 426 769.066406 L 302 769.066406 Z M 302 354 "></path>
    </clipPath>
    <clipPath id="c9c9a88a0a">
      <path d="M 474 242 L 598 242 L 598 769.066406 L 474 769.066406 Z M 474 242 "></path>
    </clipPath>
    <clipPath id="cadda116d3">
      <path d="M 645 130.816406 L 769.066406 130.816406 L 769.066406 769.066406 L 645 769.066406 Z M 645 130.816406 "></path>
    </clipPath>
  </defs>
  <g id="b1fb0b64a6">
    <g clip-rule="nonzero" clip-path="url(#ba35dc1db3)">
      <path style=" stroke:none;fill-rule:nonzero;fill:#052657;fill-opacity:1;" d="M 243.277344 466.445312 L 141.820312 466.445312 C 135.65625 466.445312 130.816406 471.289062 130.816406 477.449219 L 130.816406 758.0625 C 130.816406 764.222656 135.65625 769.066406 141.820312 769.066406 L 243.277344 769.066406 C 249.222656 769.066406 254.28125 764.222656 254.28125 758.0625 L 254.28125 477.449219 C 254.28125 471.289062 249.222656 466.445312 243.277344 466.445312 Z M 243.277344 466.445312 "></path>
    </g>
    <g clip-rule="nonzero" clip-path="url(#991b582e77)">
      <path style=" stroke:none;fill-rule:nonzero;fill:#052657;fill-opacity:1;" d="M 414.726562 354.640625 L 313.484375 354.640625 C 307.324219 354.640625 302.480469 359.484375 302.480469 365.644531 L 302.480469 758.058594 C 302.480469 764.222656 307.324219 769.066406 313.484375 769.066406 L 414.726562 769.066406 C 420.886719 769.066406 425.730469 764.222656 425.730469 758.0625 L 425.730469 365.648438 C 425.730469 359.484375 420.886719 354.640625 414.726562 354.640625 Z M 414.726562 354.640625 "></path>
    </g>
    <g clip-rule="nonzero" clip-path="url(#c9c9a88a0a)">
      <path style=" stroke:none;fill-rule:nonzero;fill:#052657;fill-opacity:1;" d="M 586.394531 242.617188 L 485.15625 242.617188 C 478.992188 242.617188 474.148438 247.679688 474.148438 253.621094 L 474.148438 758.058594 C 474.148438 764.222656 478.992188 769.066406 485.15625 769.066406 L 586.394531 769.066406 C 592.554688 769.066406 597.398438 764.222656 597.398438 758.058594 L 597.398438 253.621094 C 597.398438 247.679688 592.554688 242.617188 586.394531 242.617188 Z M 586.394531 242.617188 "></path>
    </g>
    <g clip-rule="nonzero" clip-path="url(#cadda116d3)">
      <path style=" stroke:none;fill-rule:nonzero;fill:#052657;fill-opacity:1;" d="M 758.0625 130.816406 L 656.601562 130.816406 C 650.660156 130.816406 645.597656 135.65625 645.597656 141.820312 L 645.597656 758.058594 C 645.597656 764.222656 650.660156 769.066406 656.601562 769.066406 L 758.0625 769.066406 C 764.222656 769.066406 769.066406 764.222656 769.066406 758.0625 L 769.066406 141.820312 C 769.066406 135.65625 764.222656 130.816406 758.0625 130.816406 Z M 758.0625 130.816406 "></path>
    </g>
  </g>
</svg>
