<?xml version="1.0" encoding="UTF-8"?>
<svg xmlns="http://www.w3.org/2000/svg" xmlns:xlink="http://www.w3.org/1999/xlink" width="1200" zoomAndPan="magnify" viewBox="0 0 900 899.99999" height="1200" preserveAspectRatio="xMidYMid meet" version="1.2">
  <defs>
    <clipPath id="ff4f40dd86">
      <path d="M 109 204.5 L 793.792969 204.5 L 793.792969 693 L 109 693 Z M 109 204.5 "></path>
    </clipPath>
  </defs>
  <g id="2ad7d0994a">
    <g clip-rule="nonzero" clip-path="url(#ff4f40dd86)">
      <path style=" stroke:none;fill-rule:evenodd;fill:#052657;fill-opacity:1;" d="M 220.1875 537.835938 L 229.628906 547.273438 L 258.394531 518.507812 C 238.945312 493.773438 227.34375 462.578125 227.34375 428.671875 C 227.34375 348.34375 292.460938 283.226562 372.785156 283.226562 C 394.183594 283.226562 414.496094 287.847656 432.792969 296.148438 L 409.230469 326.78125 C 397.839844 322.710938 385.574219 320.484375 372.785156 320.484375 C 313.035156 320.484375 264.597656 368.921875 264.597656 428.671875 C 264.597656 466.914062 284.4375 500.519531 314.382812 519.757812 C 314.085938 521.46875 313.929688 523.230469 313.929688 525.023438 L 313.929688 561.714844 C 302.800781 556.78125 292.402344 550.496094 282.953125 543.066406 L 254.183594 571.832031 L 263.621094 581.269531 L 243.488281 601.402344 L 200.054688 557.964844 Z M 377.738281 404.097656 C 376.136719 403.777344 374.480469 403.605469 372.785156 403.605469 C 358.941406 403.605469 347.71875 414.828125 347.71875 428.671875 C 347.71875 442.511719 358.941406 453.734375 372.785156 453.734375 C 386.625 453.734375 397.847656 442.511719 397.847656 428.671875 C 397.847656 424.6875 396.914062 420.921875 395.261719 417.578125 L 495.941406 286.679688 C 497.539062 287 499.195312 287.171875 500.894531 287.171875 C 505.460938 287.171875 509.742188 285.949219 513.429688 283.8125 L 604.164062 344.613281 C 604.015625 345.707031 603.9375 346.820312 603.9375 347.957031 C 603.9375 361.796875 615.160156 373.019531 629.003906 373.019531 C 642.84375 373.019531 654.066406 361.796875 654.066406 347.957031 C 654.066406 345.480469 653.707031 343.089844 653.035156 340.828125 L 748.09375 253.0625 C 750.890625 254.144531 753.929688 254.738281 757.113281 254.738281 C 770.953125 254.738281 782.175781 243.515625 782.175781 229.675781 C 782.175781 215.832031 770.953125 204.609375 757.113281 204.609375 C 743.269531 204.609375 732.050781 215.832031 732.050781 229.675781 C 732.050781 232.152344 732.410156 234.542969 733.078125 236.804688 L 638.023438 324.566406 C 635.222656 323.488281 632.183594 322.890625 629 322.890625 C 624.433594 322.890625 620.152344 324.113281 616.464844 326.25 L 525.734375 265.449219 C 525.878906 264.355469 525.957031 263.242188 525.957031 262.105469 C 525.957031 248.265625 514.738281 237.042969 500.894531 237.042969 C 487.050781 237.042969 475.832031 248.265625 475.832031 262.105469 C 475.832031 266.089844 476.761719 269.855469 478.414062 273.199219 Z M 728.75 317.710938 L 785.476562 317.710938 C 790.058594 317.710938 793.792969 321.445312 793.792969 326.027344 L 793.792969 636.179688 C 793.792969 640.761719 790.058594 644.496094 785.476562 644.496094 L 728.75 644.496094 C 724.167969 644.496094 720.433594 640.761719 720.433594 636.179688 L 720.433594 326.027344 C 720.433594 321.445312 724.167969 317.710938 728.75 317.710938 Z M 472.53125 375.09375 L 529.257812 375.09375 C 533.839844 375.09375 537.574219 378.828125 537.574219 383.40625 L 537.574219 636.179688 C 537.574219 640.761719 533.839844 644.496094 529.257812 644.496094 L 472.53125 644.496094 C 467.949219 644.496094 464.214844 640.761719 464.214844 636.179688 L 464.214844 383.40625 C 464.214844 378.828125 467.949219 375.09375 472.53125 375.09375 Z M 344.417969 516.707031 C 339.839844 516.707031 336.101562 520.441406 336.101562 525.023438 L 336.101562 636.179688 C 336.101562 640.761719 339.839844 644.496094 344.417969 644.496094 L 401.148438 644.496094 C 405.730469 644.496094 409.464844 640.761719 409.464844 636.179688 L 409.464844 525.023438 C 409.464844 520.441406 405.730469 516.707031 401.148438 516.707031 Z M 600.640625 435.992188 L 657.367188 435.992188 C 661.949219 435.992188 665.683594 439.730469 665.683594 444.308594 L 665.683594 636.179688 C 665.683594 640.761719 661.949219 644.496094 657.367188 644.496094 L 600.640625 644.496094 C 596.058594 644.496094 592.324219 640.761719 592.324219 636.179688 L 592.324219 444.308594 C 592.324219 439.730469 596.058594 435.992188 600.640625 435.992188 Z M 227.8125 617.082031 L 184.375 573.648438 L 118.050781 639.972656 C 106.105469 651.914062 106.109375 671.460938 118.050781 683.40625 C 129.996094 695.351562 149.542969 695.351562 161.488281 683.40625 Z M 431.183594 519.757812 C 431.484375 521.46875 431.640625 523.226562 431.640625 525.023438 L 431.640625 561.703125 C 435.183594 560.136719 438.652344 558.4375 442.039062 556.601562 L 442.039062 511.785156 C 438.59375 514.660156 434.972656 517.324219 431.183594 519.757812 Z M 472.972656 352.914062 L 485.449219 336.695312 C 489.640625 341.820312 493.488281 347.242188 496.957031 352.914062 Z M 472.972656 352.914062 "></path>
    </g>
  </g>
</svg>
