<?xml version="1.0" encoding="UTF-8"?>
<svg xmlns="http://www.w3.org/2000/svg" xmlns:xlink="http://www.w3.org/1999/xlink" width="1200" zoomAndPan="magnify" viewBox="0 0 900 899.99999" height="1200" preserveAspectRatio="xMidYMid meet" version="1.2">
  <defs>
    <clipPath id="4a3a82dc9d">
      <path d="M 70 317 L 641 317 L 641 777.394531 L 70 777.394531 Z M 70 317 "></path>
    </clipPath>
  </defs>
  <g id="53ff280053">
    <g clip-rule="nonzero" clip-path="url(#4a3a82dc9d)">
      <path style=" stroke:none;fill-rule:nonzero;fill:#052657;fill-opacity:1;" d="M 580.273438 641.28125 C 543.640625 669.523438 497.75 686.316406 447.925781 686.316406 C 328.078125 686.316406 230.929688 589.175781 230.929688 469.339844 L 309.121094 469.339844 L 198.289062 317.554688 L 70.128906 469.328125 L 140.210938 469.328125 C 140.210938 639.261719 277.964844 777.023438 447.925781 777.023438 C 520.980469 777.023438 588.085938 751.5625 640.863281 709.035156 Z M 580.273438 641.28125 "></path>
    </g>
    <path style=" stroke:none;fill-rule:nonzero;fill:#052657;fill-opacity:1;" d="M 240.070312 224.765625 C 307.417969 158.0625 404.558594 123.277344 505.324219 139.367188 C 673.128906 166.175781 787.433594 323.933594 760.636719 491.738281 L 829.847656 502.785156 L 679.355469 632.457031 L 593.847656 465.105469 L 671.050781 477.441406 C 689.949219 359.09375 609.339844 247.859375 491.015625 228.949219 C 415.316406 216.867188 342.519531 245.5 294.9375 298.664062 Z M 240.070312 224.765625 "></path>
  </g>
</svg>
