<?xml version="1.0" encoding="UTF-8"?>
<svg xmlns="http://www.w3.org/2000/svg" xmlns:xlink="http://www.w3.org/1999/xlink" width="1200" zoomAndPan="magnify" viewBox="0 0 900 899.99999" height="1200" preserveAspectRatio="xMidYMid meet" version="1.2">
  <defs>
    <clipPath id="005f5c1b59">
      <path d="M 121.910156 99 L 778 99 L 778 800.933594 L 121.910156 800.933594 Z M 121.910156 99 "></path>
    </clipPath>
  </defs>
  <g id="6c02af7dea">
    <g clip-rule="nonzero" clip-path="url(#005f5c1b59)">
      <path style=" stroke:none;fill-rule:nonzero;fill:#052657;fill-opacity:1;" d="M 449.753906 218.753906 C 390.886719 219.453125 335.652344 242.917969 294.210938 284.820312 C 252.746094 326.746094 229.917969 382.320312 229.917969 441.28125 C 229.917969 508.015625 259.484375 570.648438 311.050781 613.121094 C 327.320312 626.53125 336.65625 646.398438 336.65625 667.660156 L 336.65625 723.222656 C 336.65625 765.859375 371.355469 800.558594 413.992188 800.558594 L 490.929688 800.558594 C 533.566406 800.558594 568.265625 765.859375 568.265625 723.222656 L 568.265625 667.660156 C 568.265625 646.453125 577.726562 626.472656 594.21875 612.828125 C 646.570312 569.535156 676.007812 505.742188 674.976562 437.820312 C 673.121094 315.554688 572.105469 217.261719 449.753906 218.753906 Z M 490.929688 769.851562 L 413.992188 769.851562 C 390.777344 769.851562 371.480469 752.800781 367.9375 730.574219 L 536.984375 730.574219 C 533.441406 752.8125 514.144531 769.851562 490.929688 769.851562 Z M 537.570312 699.878906 L 367.351562 699.878906 L 367.351562 682.996094 L 537.570312 682.996094 Z M 574.65625 589.164062 C 555.109375 605.335938 542.484375 627.785156 538.742188 652.300781 L 366.179688 652.300781 C 362.46875 627.742188 349.964844 605.390625 330.570312 589.417969 C 286.121094 552.804688 260.628906 498.808594 260.628906 441.269531 C 260.628906 336.734375 345.640625 250.691406 450.132812 249.433594 C 450.914062 249.421875 451.679688 249.421875 452.460938 249.421875 C 556.867188 249.421875 642.71875 333.667969 644.308594 438.28125 C 645.171875 496.839844 619.792969 551.828125 574.65625 589.164062 Z M 437.113281 171.929688 L 437.113281 114.667969 C 437.113281 106.183594 443.976562 99.320312 452.460938 99.320312 C 460.945312 99.320312 467.808594 106.183594 467.808594 114.667969 L 467.808594 171.929688 C 467.808594 180.414062 460.945312 187.277344 452.460938 187.277344 C 443.976562 187.277344 437.113281 180.414062 437.113281 171.929688 Z M 566.523438 199.738281 L 595.152344 150.148438 C 599.394531 142.808594 608.785156 140.296875 616.125 144.527344 C 623.464844 148.769531 625.976562 158.15625 621.746094 165.496094 L 593.117188 215.085938 C 590.269531 220.007812 585.109375 222.757812 579.804688 222.757812 C 577.195312 222.757812 574.558594 222.089844 572.144531 220.691406 C 564.808594 216.464844 562.296875 207.074219 566.523438 199.738281 Z M 729.640625 286.480469 L 680.054688 315.109375 C 677.640625 316.503906 675.003906 317.175781 672.394531 317.175781 C 667.09375 317.175781 661.929688 314.425781 659.082031 309.5 C 654.84375 302.160156 657.367188 292.773438 664.707031 288.53125 L 714.292969 259.898438 C 721.648438 255.65625 731.023438 258.183594 735.265625 265.523438 C 739.492188 272.847656 736.980469 282.238281 729.640625 286.480469 Z M 777.945312 429.855469 C 777.945312 438.339844 771.082031 445.203125 762.597656 445.203125 L 705.335938 445.203125 C 696.851562 445.203125 689.988281 438.339844 689.988281 429.855469 C 689.988281 421.371094 696.851562 414.507812 705.335938 414.507812 L 762.597656 414.507812 C 771.066406 414.507812 777.945312 421.371094 777.945312 429.855469 Z M 282.503906 162.957031 C 278.265625 155.617188 280.789062 146.226562 288.128906 141.988281 C 295.46875 137.746094 304.855469 140.269531 309.097656 147.609375 L 337.730469 197.195312 C 341.972656 204.535156 339.445312 213.925781 332.105469 218.167969 C 329.691406 219.5625 327.054688 220.234375 324.445312 220.234375 C 319.144531 220.234375 313.980469 217.484375 311.136719 212.558594 Z M 230.015625 312.78125 C 227.40625 312.78125 224.769531 312.109375 222.355469 310.714844 L 172.769531 282.085938 C 165.429688 277.84375 162.917969 268.453125 167.144531 261.113281 C 171.386719 253.773438 180.777344 251.261719 188.117188 255.492188 L 237.703125 284.121094 C 245.042969 288.363281 247.554688 297.753906 243.328125 305.09375 C 240.480469 310.03125 235.316406 312.78125 230.015625 312.78125 Z M 209.898438 424.789062 C 209.898438 433.273438 203.03125 440.136719 194.546875 440.136719 L 137.289062 440.136719 C 128.804688 440.136719 121.941406 433.273438 121.941406 424.789062 C 121.941406 416.308594 128.804688 409.441406 137.289062 409.441406 L 194.546875 409.441406 C 203.019531 409.441406 209.898438 416.320312 209.898438 424.789062 Z M 209.898438 424.789062 "></path>
    </g>
  </g>
</svg>
