<?xml version="1.0" encoding="UTF-8"?>
<svg xmlns="http://www.w3.org/2000/svg" xmlns:xlink="http://www.w3.org/1999/xlink" width="1200" zoomAndPan="magnify" viewBox="0 0 900 899.99999" height="1200" preserveAspectRatio="xMidYMid meet" version="1.2">
  <defs>
    <clipPath id="07281e8c31">
      <path d="M 27.796875 27.796875 L 872.203125 27.796875 L 872.203125 872.203125 L 27.796875 872.203125 Z M 27.796875 27.796875 "></path>
    </clipPath>
    <clipPath id="e21b50f278">
      <path d="M 450 872.203125 C 683.835938 872.203125 872.203125 683.835938 872.203125 450 C 872.203125 216.164062 683.835938 27.796875 450 27.796875 C 218.328125 27.796875 27.796875 216.164062 27.796875 450 C 27.796875 683.835938 218.328125 872.203125 450 872.203125 Z M 450 92.75 C 647.027344 92.75 807.25 252.972656 807.25 450 C 807.25 647.027344 647.027344 807.25 450 807.25 C 252.972656 807.25 92.75 647.027344 92.75 450 C 92.75 252.972656 252.972656 92.75 450 92.75 Z M 450 92.75 "></path>
    </clipPath>
    <linearGradient x1="0.00000917451" gradientTransform="matrix(-3.298463,0,0,-3.298463,872.202995,872.203133)" y1="128" x2="255.999998" gradientUnits="userSpaceOnUse" y2="128" id="6d73e238dc">
      <stop style="stop-color:#a0e05b;stop-opacity:1;" offset="0"></stop>
      <stop style="stop-color:#9fe05b;stop-opacity:1;" offset="0.00390625"></stop>
      <stop style="stop-color:#9fdf5b;stop-opacity:1;" offset="0.0078125"></stop>
      <stop style="stop-color:#9edf5b;stop-opacity:1;" offset="0.0117187"></stop>
      <stop style="stop-color:#9ddf5a;stop-opacity:1;" offset="0.015625"></stop>
      <stop style="stop-color:#9dde5a;stop-opacity:1;" offset="0.0195312"></stop>
      <stop style="stop-color:#9cde5a;stop-opacity:1;" offset="0.0234375"></stop>
      <stop style="stop-color:#9bde5a;stop-opacity:1;" offset="0.0273437"></stop>
      <stop style="stop-color:#9bdd5a;stop-opacity:1;" offset="0.03125"></stop>
      <stop style="stop-color:#9add5a;stop-opacity:1;" offset="0.0351562"></stop>
      <stop style="stop-color:#99dd59;stop-opacity:1;" offset="0.0390625"></stop>
      <stop style="stop-color:#99dc59;stop-opacity:1;" offset="0.0429687"></stop>
      <stop style="stop-color:#98dc59;stop-opacity:1;" offset="0.046875"></stop>
      <stop style="stop-color:#97dc59;stop-opacity:1;" offset="0.0507812"></stop>
      <stop style="stop-color:#97dc59;stop-opacity:1;" offset="0.0546875"></stop>
      <stop style="stop-color:#96db59;stop-opacity:1;" offset="0.0585937"></stop>
      <stop style="stop-color:#96db58;stop-opacity:1;" offset="0.0625"></stop>
      <stop style="stop-color:#95db58;stop-opacity:1;" offset="0.0664062"></stop>
      <stop style="stop-color:#94da58;stop-opacity:1;" offset="0.0703125"></stop>
      <stop style="stop-color:#94da58;stop-opacity:1;" offset="0.0742187"></stop>
      <stop style="stop-color:#93da58;stop-opacity:1;" offset="0.078125"></stop>
      <stop style="stop-color:#92d958;stop-opacity:1;" offset="0.0820312"></stop>
      <stop style="stop-color:#92d957;stop-opacity:1;" offset="0.0859375"></stop>
      <stop style="stop-color:#91d957;stop-opacity:1;" offset="0.0898437"></stop>
      <stop style="stop-color:#90d857;stop-opacity:1;" offset="0.09375"></stop>
      <stop style="stop-color:#90d857;stop-opacity:1;" offset="0.0976562"></stop>
      <stop style="stop-color:#8fd857;stop-opacity:1;" offset="0.101562"></stop>
      <stop style="stop-color:#8ed757;stop-opacity:1;" offset="0.105469"></stop>
      <stop style="stop-color:#8ed756;stop-opacity:1;" offset="0.109375"></stop>
      <stop style="stop-color:#8dd756;stop-opacity:1;" offset="0.113281"></stop>
      <stop style="stop-color:#8cd756;stop-opacity:1;" offset="0.117187"></stop>
      <stop style="stop-color:#8cd656;stop-opacity:1;" offset="0.121094"></stop>
      <stop style="stop-color:#8bd656;stop-opacity:1;" offset="0.125"></stop>
      <stop style="stop-color:#8bd656;stop-opacity:1;" offset="0.128906"></stop>
      <stop style="stop-color:#8ad555;stop-opacity:1;" offset="0.132812"></stop>
      <stop style="stop-color:#89d555;stop-opacity:1;" offset="0.136719"></stop>
      <stop style="stop-color:#89d555;stop-opacity:1;" offset="0.140625"></stop>
      <stop style="stop-color:#88d455;stop-opacity:1;" offset="0.144531"></stop>
      <stop style="stop-color:#87d455;stop-opacity:1;" offset="0.148437"></stop>
      <stop style="stop-color:#87d455;stop-opacity:1;" offset="0.152344"></stop>
      <stop style="stop-color:#86d354;stop-opacity:1;" offset="0.15625"></stop>
      <stop style="stop-color:#85d354;stop-opacity:1;" offset="0.160156"></stop>
      <stop style="stop-color:#85d354;stop-opacity:1;" offset="0.164062"></stop>
      <stop style="stop-color:#84d354;stop-opacity:1;" offset="0.167969"></stop>
      <stop style="stop-color:#83d254;stop-opacity:1;" offset="0.171875"></stop>
      <stop style="stop-color:#83d254;stop-opacity:1;" offset="0.175781"></stop>
      <stop style="stop-color:#82d254;stop-opacity:1;" offset="0.179687"></stop>
      <stop style="stop-color:#81d153;stop-opacity:1;" offset="0.183594"></stop>
      <stop style="stop-color:#81d153;stop-opacity:1;" offset="0.1875"></stop>
      <stop style="stop-color:#80d153;stop-opacity:1;" offset="0.191406"></stop>
      <stop style="stop-color:#80d053;stop-opacity:1;" offset="0.195312"></stop>
      <stop style="stop-color:#7fd053;stop-opacity:1;" offset="0.199219"></stop>
      <stop style="stop-color:#7ed053;stop-opacity:1;" offset="0.203125"></stop>
      <stop style="stop-color:#7ecf52;stop-opacity:1;" offset="0.207031"></stop>
      <stop style="stop-color:#7dcf52;stop-opacity:1;" offset="0.210937"></stop>
      <stop style="stop-color:#7ccf52;stop-opacity:1;" offset="0.214844"></stop>
      <stop style="stop-color:#7cce52;stop-opacity:1;" offset="0.21875"></stop>
      <stop style="stop-color:#7bce52;stop-opacity:1;" offset="0.222656"></stop>
      <stop style="stop-color:#7ace52;stop-opacity:1;" offset="0.226562"></stop>
      <stop style="stop-color:#7ace51;stop-opacity:1;" offset="0.230469"></stop>
      <stop style="stop-color:#79cd51;stop-opacity:1;" offset="0.234375"></stop>
      <stop style="stop-color:#78cd51;stop-opacity:1;" offset="0.238281"></stop>
      <stop style="stop-color:#78cd51;stop-opacity:1;" offset="0.242187"></stop>
      <stop style="stop-color:#77cc51;stop-opacity:1;" offset="0.246094"></stop>
      <stop style="stop-color:#76cc51;stop-opacity:1;" offset="0.25"></stop>
      <stop style="stop-color:#76cc50;stop-opacity:1;" offset="0.253906"></stop>
      <stop style="stop-color:#75cb50;stop-opacity:1;" offset="0.257812"></stop>
      <stop style="stop-color:#75cb50;stop-opacity:1;" offset="0.261719"></stop>
      <stop style="stop-color:#74cb50;stop-opacity:1;" offset="0.265625"></stop>
      <stop style="stop-color:#73ca50;stop-opacity:1;" offset="0.269531"></stop>
      <stop style="stop-color:#73ca50;stop-opacity:1;" offset="0.273437"></stop>
      <stop style="stop-color:#72ca4f;stop-opacity:1;" offset="0.277344"></stop>
      <stop style="stop-color:#71ca4f;stop-opacity:1;" offset="0.28125"></stop>
      <stop style="stop-color:#71c94f;stop-opacity:1;" offset="0.285156"></stop>
      <stop style="stop-color:#70c94f;stop-opacity:1;" offset="0.289062"></stop>
      <stop style="stop-color:#6fc94f;stop-opacity:1;" offset="0.292969"></stop>
      <stop style="stop-color:#6fc84f;stop-opacity:1;" offset="0.296875"></stop>
      <stop style="stop-color:#6ec84e;stop-opacity:1;" offset="0.300781"></stop>
      <stop style="stop-color:#6dc84e;stop-opacity:1;" offset="0.304687"></stop>
      <stop style="stop-color:#6dc74e;stop-opacity:1;" offset="0.308594"></stop>
      <stop style="stop-color:#6cc74e;stop-opacity:1;" offset="0.3125"></stop>
      <stop style="stop-color:#6bc74e;stop-opacity:1;" offset="0.316406"></stop>
      <stop style="stop-color:#6bc64e;stop-opacity:1;" offset="0.320312"></stop>
      <stop style="stop-color:#6ac64d;stop-opacity:1;" offset="0.324219"></stop>
      <stop style="stop-color:#69c64d;stop-opacity:1;" offset="0.328125"></stop>
      <stop style="stop-color:#69c54d;stop-opacity:1;" offset="0.332031"></stop>
      <stop style="stop-color:#68c54d;stop-opacity:1;" offset="0.335937"></stop>
      <stop style="stop-color:#68c54d;stop-opacity:1;" offset="0.339844"></stop>
      <stop style="stop-color:#67c54d;stop-opacity:1;" offset="0.34375"></stop>
      <stop style="stop-color:#66c44c;stop-opacity:1;" offset="0.347656"></stop>
      <stop style="stop-color:#66c44c;stop-opacity:1;" offset="0.351562"></stop>
      <stop style="stop-color:#65c44c;stop-opacity:1;" offset="0.355469"></stop>
      <stop style="stop-color:#64c34c;stop-opacity:1;" offset="0.359375"></stop>
      <stop style="stop-color:#64c34c;stop-opacity:1;" offset="0.363281"></stop>
      <stop style="stop-color:#63c34c;stop-opacity:1;" offset="0.367187"></stop>
      <stop style="stop-color:#62c24c;stop-opacity:1;" offset="0.371094"></stop>
      <stop style="stop-color:#62c24b;stop-opacity:1;" offset="0.375"></stop>
      <stop style="stop-color:#61c24b;stop-opacity:1;" offset="0.378906"></stop>
      <stop style="stop-color:#60c14b;stop-opacity:1;" offset="0.382812"></stop>
      <stop style="stop-color:#60c14b;stop-opacity:1;" offset="0.386719"></stop>
      <stop style="stop-color:#5fc14b;stop-opacity:1;" offset="0.390625"></stop>
      <stop style="stop-color:#5ec04b;stop-opacity:1;" offset="0.394531"></stop>
      <stop style="stop-color:#5ec04a;stop-opacity:1;" offset="0.398437"></stop>
      <stop style="stop-color:#5dc04a;stop-opacity:1;" offset="0.402344"></stop>
      <stop style="stop-color:#5dc04a;stop-opacity:1;" offset="0.40625"></stop>
      <stop style="stop-color:#5cbf4a;stop-opacity:1;" offset="0.410156"></stop>
      <stop style="stop-color:#5bbf4a;stop-opacity:1;" offset="0.414062"></stop>
      <stop style="stop-color:#5bbf4a;stop-opacity:1;" offset="0.417969"></stop>
      <stop style="stop-color:#5abe49;stop-opacity:1;" offset="0.421875"></stop>
      <stop style="stop-color:#59be49;stop-opacity:1;" offset="0.425781"></stop>
      <stop style="stop-color:#59be49;stop-opacity:1;" offset="0.429687"></stop>
      <stop style="stop-color:#58bd49;stop-opacity:1;" offset="0.433594"></stop>
      <stop style="stop-color:#57bd49;stop-opacity:1;" offset="0.4375"></stop>
      <stop style="stop-color:#57bd49;stop-opacity:1;" offset="0.441406"></stop>
      <stop style="stop-color:#56bc48;stop-opacity:1;" offset="0.445312"></stop>
      <stop style="stop-color:#55bc48;stop-opacity:1;" offset="0.449219"></stop>
      <stop style="stop-color:#55bc48;stop-opacity:1;" offset="0.453125"></stop>
      <stop style="stop-color:#54bc48;stop-opacity:1;" offset="0.457031"></stop>
      <stop style="stop-color:#53bb48;stop-opacity:1;" offset="0.460937"></stop>
      <stop style="stop-color:#53bb48;stop-opacity:1;" offset="0.464844"></stop>
      <stop style="stop-color:#52bb47;stop-opacity:1;" offset="0.46875"></stop>
      <stop style="stop-color:#52ba47;stop-opacity:1;" offset="0.472656"></stop>
      <stop style="stop-color:#51ba47;stop-opacity:1;" offset="0.476562"></stop>
      <stop style="stop-color:#50ba47;stop-opacity:1;" offset="0.480469"></stop>
      <stop style="stop-color:#50b947;stop-opacity:1;" offset="0.484375"></stop>
      <stop style="stop-color:#4fb947;stop-opacity:1;" offset="0.488281"></stop>
      <stop style="stop-color:#4eb946;stop-opacity:1;" offset="0.492187"></stop>
      <stop style="stop-color:#4eb846;stop-opacity:1;" offset="0.496094"></stop>
      <stop style="stop-color:#4db846;stop-opacity:1;" offset="0.5"></stop>
      <stop style="stop-color:#4cb746;stop-opacity:1;" offset="0.503906"></stop>
      <stop style="stop-color:#4cb646;stop-opacity:1;" offset="0.507812"></stop>
      <stop style="stop-color:#4bb547;stop-opacity:1;" offset="0.511719"></stop>
      <stop style="stop-color:#4bb447;stop-opacity:1;" offset="0.515625"></stop>
      <stop style="stop-color:#4ab247;stop-opacity:1;" offset="0.519531"></stop>
      <stop style="stop-color:#4ab147;stop-opacity:1;" offset="0.523437"></stop>
      <stop style="stop-color:#49b047;stop-opacity:1;" offset="0.527344"></stop>
      <stop style="stop-color:#49af47;stop-opacity:1;" offset="0.53125"></stop>
      <stop style="stop-color:#48ae47;stop-opacity:1;" offset="0.535156"></stop>
      <stop style="stop-color:#47ad47;stop-opacity:1;" offset="0.539062"></stop>
      <stop style="stop-color:#47ac48;stop-opacity:1;" offset="0.542969"></stop>
      <stop style="stop-color:#46aa48;stop-opacity:1;" offset="0.546875"></stop>
      <stop style="stop-color:#46a948;stop-opacity:1;" offset="0.550781"></stop>
      <stop style="stop-color:#45a848;stop-opacity:1;" offset="0.554687"></stop>
      <stop style="stop-color:#45a748;stop-opacity:1;" offset="0.558594"></stop>
      <stop style="stop-color:#44a648;stop-opacity:1;" offset="0.5625"></stop>
      <stop style="stop-color:#43a548;stop-opacity:1;" offset="0.566406"></stop>
      <stop style="stop-color:#43a448;stop-opacity:1;" offset="0.570312"></stop>
      <stop style="stop-color:#42a249;stop-opacity:1;" offset="0.574219"></stop>
      <stop style="stop-color:#42a149;stop-opacity:1;" offset="0.578125"></stop>
      <stop style="stop-color:#41a049;stop-opacity:1;" offset="0.582031"></stop>
      <stop style="stop-color:#419f49;stop-opacity:1;" offset="0.585937"></stop>
      <stop style="stop-color:#409e49;stop-opacity:1;" offset="0.589844"></stop>
      <stop style="stop-color:#409d49;stop-opacity:1;" offset="0.59375"></stop>
      <stop style="stop-color:#3f9c49;stop-opacity:1;" offset="0.597656"></stop>
      <stop style="stop-color:#3e9a4a;stop-opacity:1;" offset="0.601562"></stop>
      <stop style="stop-color:#3e994a;stop-opacity:1;" offset="0.605469"></stop>
      <stop style="stop-color:#3d984a;stop-opacity:1;" offset="0.609375"></stop>
      <stop style="stop-color:#3d974a;stop-opacity:1;" offset="0.613281"></stop>
      <stop style="stop-color:#3c964a;stop-opacity:1;" offset="0.617187"></stop>
      <stop style="stop-color:#3c954a;stop-opacity:1;" offset="0.621094"></stop>
      <stop style="stop-color:#3b944a;stop-opacity:1;" offset="0.625"></stop>
      <stop style="stop-color:#3a924a;stop-opacity:1;" offset="0.628906"></stop>
      <stop style="stop-color:#3a914b;stop-opacity:1;" offset="0.632812"></stop>
      <stop style="stop-color:#39904b;stop-opacity:1;" offset="0.636719"></stop>
      <stop style="stop-color:#398f4b;stop-opacity:1;" offset="0.640625"></stop>
      <stop style="stop-color:#388e4b;stop-opacity:1;" offset="0.644531"></stop>
      <stop style="stop-color:#388d4b;stop-opacity:1;" offset="0.648437"></stop>
      <stop style="stop-color:#378c4b;stop-opacity:1;" offset="0.652344"></stop>
      <stop style="stop-color:#378a4b;stop-opacity:1;" offset="0.65625"></stop>
      <stop style="stop-color:#36894c;stop-opacity:1;" offset="0.660156"></stop>
      <stop style="stop-color:#35884c;stop-opacity:1;" offset="0.664062"></stop>
      <stop style="stop-color:#35874c;stop-opacity:1;" offset="0.667969"></stop>
      <stop style="stop-color:#34864c;stop-opacity:1;" offset="0.671875"></stop>
      <stop style="stop-color:#34854c;stop-opacity:1;" offset="0.675781"></stop>
      <stop style="stop-color:#33844c;stop-opacity:1;" offset="0.679687"></stop>
      <stop style="stop-color:#33824c;stop-opacity:1;" offset="0.683594"></stop>
      <stop style="stop-color:#32814c;stop-opacity:1;" offset="0.6875"></stop>
      <stop style="stop-color:#31804d;stop-opacity:1;" offset="0.691406"></stop>
      <stop style="stop-color:#317f4d;stop-opacity:1;" offset="0.695312"></stop>
      <stop style="stop-color:#307e4d;stop-opacity:1;" offset="0.699219"></stop>
      <stop style="stop-color:#307d4d;stop-opacity:1;" offset="0.703125"></stop>
      <stop style="stop-color:#2f7c4d;stop-opacity:1;" offset="0.707031"></stop>
      <stop style="stop-color:#2f7a4d;stop-opacity:1;" offset="0.710937"></stop>
      <stop style="stop-color:#2e794d;stop-opacity:1;" offset="0.714844"></stop>
      <stop style="stop-color:#2e784d;stop-opacity:1;" offset="0.71875"></stop>
      <stop style="stop-color:#2d774e;stop-opacity:1;" offset="0.722656"></stop>
      <stop style="stop-color:#2c764e;stop-opacity:1;" offset="0.726562"></stop>
      <stop style="stop-color:#2c754e;stop-opacity:1;" offset="0.730469"></stop>
      <stop style="stop-color:#2b744e;stop-opacity:1;" offset="0.734375"></stop>
      <stop style="stop-color:#2b724e;stop-opacity:1;" offset="0.738281"></stop>
      <stop style="stop-color:#2a714e;stop-opacity:1;" offset="0.742187"></stop>
      <stop style="stop-color:#2a704e;stop-opacity:1;" offset="0.746094"></stop>
      <stop style="stop-color:#296f4f;stop-opacity:1;" offset="0.75"></stop>
      <stop style="stop-color:#286e4f;stop-opacity:1;" offset="0.753906"></stop>
      <stop style="stop-color:#286d4f;stop-opacity:1;" offset="0.757812"></stop>
      <stop style="stop-color:#276c4f;stop-opacity:1;" offset="0.761719"></stop>
      <stop style="stop-color:#276a4f;stop-opacity:1;" offset="0.765625"></stop>
      <stop style="stop-color:#26694f;stop-opacity:1;" offset="0.769531"></stop>
      <stop style="stop-color:#26684f;stop-opacity:1;" offset="0.773437"></stop>
      <stop style="stop-color:#25674f;stop-opacity:1;" offset="0.777344"></stop>
      <stop style="stop-color:#256650;stop-opacity:1;" offset="0.78125"></stop>
      <stop style="stop-color:#246550;stop-opacity:1;" offset="0.785156"></stop>
      <stop style="stop-color:#236450;stop-opacity:1;" offset="0.789062"></stop>
      <stop style="stop-color:#236250;stop-opacity:1;" offset="0.792969"></stop>
      <stop style="stop-color:#226150;stop-opacity:1;" offset="0.796875"></stop>
      <stop style="stop-color:#226050;stop-opacity:1;" offset="0.800781"></stop>
      <stop style="stop-color:#215f50;stop-opacity:1;" offset="0.804687"></stop>
      <stop style="stop-color:#215e51;stop-opacity:1;" offset="0.808594"></stop>
      <stop style="stop-color:#205d51;stop-opacity:1;" offset="0.8125"></stop>
      <stop style="stop-color:#205c51;stop-opacity:1;" offset="0.816406"></stop>
      <stop style="stop-color:#1f5b51;stop-opacity:1;" offset="0.820312"></stop>
      <stop style="stop-color:#1e5951;stop-opacity:1;" offset="0.824219"></stop>
      <stop style="stop-color:#1e5851;stop-opacity:1;" offset="0.828125"></stop>
      <stop style="stop-color:#1d5751;stop-opacity:1;" offset="0.832031"></stop>
      <stop style="stop-color:#1d5651;stop-opacity:1;" offset="0.835937"></stop>
      <stop style="stop-color:#1c5552;stop-opacity:1;" offset="0.839844"></stop>
      <stop style="stop-color:#1c5452;stop-opacity:1;" offset="0.84375"></stop>
      <stop style="stop-color:#1b5352;stop-opacity:1;" offset="0.847656"></stop>
      <stop style="stop-color:#1a5152;stop-opacity:1;" offset="0.851562"></stop>
      <stop style="stop-color:#1a5052;stop-opacity:1;" offset="0.855469"></stop>
      <stop style="stop-color:#194f52;stop-opacity:1;" offset="0.859375"></stop>
      <stop style="stop-color:#194e52;stop-opacity:1;" offset="0.863281"></stop>
      <stop style="stop-color:#184d52;stop-opacity:1;" offset="0.867187"></stop>
      <stop style="stop-color:#184c53;stop-opacity:1;" offset="0.871094"></stop>
      <stop style="stop-color:#174b53;stop-opacity:1;" offset="0.875"></stop>
      <stop style="stop-color:#174953;stop-opacity:1;" offset="0.878906"></stop>
      <stop style="stop-color:#164853;stop-opacity:1;" offset="0.882812"></stop>
      <stop style="stop-color:#154753;stop-opacity:1;" offset="0.886719"></stop>
      <stop style="stop-color:#154653;stop-opacity:1;" offset="0.890625"></stop>
      <stop style="stop-color:#144553;stop-opacity:1;" offset="0.894531"></stop>
      <stop style="stop-color:#144454;stop-opacity:1;" offset="0.898437"></stop>
      <stop style="stop-color:#134354;stop-opacity:1;" offset="0.902344"></stop>
      <stop style="stop-color:#134154;stop-opacity:1;" offset="0.90625"></stop>
      <stop style="stop-color:#124054;stop-opacity:1;" offset="0.910156"></stop>
      <stop style="stop-color:#113f54;stop-opacity:1;" offset="0.914062"></stop>
      <stop style="stop-color:#113e54;stop-opacity:1;" offset="0.917969"></stop>
      <stop style="stop-color:#103d54;stop-opacity:1;" offset="0.921875"></stop>
      <stop style="stop-color:#103c54;stop-opacity:1;" offset="0.925781"></stop>
      <stop style="stop-color:#0f3b55;stop-opacity:1;" offset="0.929687"></stop>
      <stop style="stop-color:#0f3955;stop-opacity:1;" offset="0.933594"></stop>
      <stop style="stop-color:#0e3855;stop-opacity:1;" offset="0.9375"></stop>
      <stop style="stop-color:#0e3755;stop-opacity:1;" offset="0.941406"></stop>
      <stop style="stop-color:#0d3655;stop-opacity:1;" offset="0.945312"></stop>
      <stop style="stop-color:#0c3555;stop-opacity:1;" offset="0.949219"></stop>
      <stop style="stop-color:#0c3455;stop-opacity:1;" offset="0.953125"></stop>
      <stop style="stop-color:#0b3356;stop-opacity:1;" offset="0.957031"></stop>
      <stop style="stop-color:#0b3156;stop-opacity:1;" offset="0.960938"></stop>
      <stop style="stop-color:#0a3056;stop-opacity:1;" offset="0.964844"></stop>
      <stop style="stop-color:#0a2f56;stop-opacity:1;" offset="0.96875"></stop>
      <stop style="stop-color:#092e56;stop-opacity:1;" offset="0.972656"></stop>
      <stop style="stop-color:#082d56;stop-opacity:1;" offset="0.976562"></stop>
      <stop style="stop-color:#082c56;stop-opacity:1;" offset="0.980469"></stop>
      <stop style="stop-color:#072b56;stop-opacity:1;" offset="0.984375"></stop>
      <stop style="stop-color:#072957;stop-opacity:1;" offset="0.988281"></stop>
      <stop style="stop-color:#062857;stop-opacity:1;" offset="0.992188"></stop>
      <stop style="stop-color:#062757;stop-opacity:1;" offset="0.996094"></stop>
      <stop style="stop-color:#052657;stop-opacity:1;" offset="1"></stop>
    </linearGradient>
    <clipPath id="71b8adf5d6">
      <path d="M 92 92 L 808 92 L 808 808 L 92 808 Z M 92 92 "></path>
    </clipPath>
    <clipPath id="7c2a61b2fc">
      <path d="M 450 807.25 C 647.027344 807.25 807.25 647.027344 807.25 450 C 807.25 252.972656 647.027344 92.75 450 92.75 C 252.972656 92.75 92.75 252.972656 92.75 450 C 92.75 647.027344 252.972656 807.25 450 807.25 Z M 450 807.25 "></path>
    </clipPath>
    <clipPath id="eb7c1e4eba">
      <path d="M 226.011719 162 L 650 162 L 650 673 L 226.011719 673 Z M 226.011719 162 "></path>
    </clipPath>
  </defs>
  <g id="cd0850d7bb">
    <g clip-rule="nonzero" clip-path="url(#07281e8c31)">
      <g clip-rule="nonzero" clip-path="url(#e21b50f278)">
        <path style=" stroke:none;fill-rule:nonzero;fill:url(#6d73e238dc);" d="M 872.203125 872.203125 L 872.203125 27.796875 L 27.796875 27.796875 L 27.796875 872.203125 Z M 872.203125 872.203125 "></path>
      </g>
    </g>
    <g clip-rule="nonzero" clip-path="url(#71b8adf5d6)">
      <g clip-rule="nonzero" clip-path="url(#7c2a61b2fc)">
        <path style=" stroke:none;fill-rule:nonzero;fill:#fafffc;fill-opacity:1;" d="M 872.203125 872.203125 L 27.796875 872.203125 L 27.796875 27.796875 L 872.203125 27.796875 Z M 872.203125 872.203125 "></path>
      </g>
    </g>
    <path style=" stroke:none;fill-rule:evenodd;fill:#052657;fill-opacity:1;" d="M 355.449219 313.269531 L 386.5625 313.269531 C 388.4375 313.269531 389.699219 314.492188 389.699219 316.398438 L 389.699219 347.480469 C 389.699219 349.386719 388.4375 350.648438 386.5625 350.648438 L 355.449219 350.648438 C 353.550781 350.648438 352.320312 349.386719 352.320312 347.480469 L 352.320312 316.398438 C 352.3125 314.492188 353.550781 313.269531 355.449219 313.269531 Z M 348.097656 294.925781 C 340.289062 294.925781 333.984375 301.230469 333.984375 309.039062 L 333.984375 354.875 C 333.984375 362.679688 340.289062 368.96875 348.097656 368.96875 L 393.917969 368.96875 C 401.765625 368.96875 408.027344 362.671875 408.027344 354.875 L 408.027344 309.039062 C 408.027344 301.230469 401.765625 294.925781 393.917969 294.925781 Z M 348.097656 294.925781 "></path>
    <path style=" stroke:none;fill-rule:evenodd;fill:#052657;fill-opacity:1;" d="M 469.867188 313.269531 L 500.949219 313.269531 C 502.855469 313.269531 504.128906 314.492188 504.128906 316.398438 L 504.128906 342.261719 C 504.128906 344.167969 502.855469 345.390625 500.949219 345.390625 L 469.867188 345.390625 C 467.96875 345.390625 466.742188 344.167969 466.742188 342.261719 L 466.742188 316.398438 C 466.742188 314.492188 467.960938 313.269531 469.867188 313.269531 Z M 462.523438 294.925781 C 454.71875 294.925781 448.414062 301.230469 448.414062 309.039062 L 448.414062 354.875 C 448.414062 367.210938 458.527344 367.898438 466.332031 364.257812 C 478.167969 358.726562 493.964844 358.726562 503.804688 362.671875 C 516.777344 367.847656 522.457031 367.933594 522.457031 357.628906 L 522.457031 309.027344 C 522.457031 301.222656 516.148438 294.917969 508.335938 294.917969 L 462.523438 294.917969 Z M 462.523438 294.925781 "></path>
    <path style=" stroke:none;fill-rule:evenodd;fill:#052657;fill-opacity:1;" d="M 355.5 427.648438 L 386.5625 427.648438 C 388.480469 427.648438 389.699219 428.917969 389.699219 430.828125 L 389.699219 461.890625 C 389.699219 463.808594 388.480469 465.070312 386.5625 465.070312 L 355.5 465.070312 C 353.59375 465.070312 352.320312 463.796875 352.320312 461.890625 L 352.320312 430.828125 C 352.3125 428.917969 353.59375 427.648438 355.5 427.648438 Z M 348.097656 409.3125 C 340.289062 409.3125 333.984375 415.617188 333.984375 423.421875 L 333.984375 469.242188 C 333.984375 477.089844 340.289062 483.398438 348.097656 483.398438 L 393.917969 483.398438 C 401.765625 483.398438 408.027344 477.089844 408.027344 469.242188 L 408.027344 423.421875 C 408.027344 415.617188 401.765625 409.3125 393.917969 409.3125 Z M 348.097656 409.3125 "></path>
    <path style=" stroke:none;fill-rule:evenodd;fill:#052657;fill-opacity:1;" d="M 448.414062 456.585938 L 448.414062 472.101562 C 448.414062 478.363281 453.394531 483.398438 459.660156 483.398438 L 473.996094 483.398438 C 478.847656 483.398438 481.347656 480.59375 477.117188 475.59375 L 456.480469 451.273438 C 447.917969 441.210938 448.414062 451.828125 448.414062 456.585938 Z M 448.414062 456.585938 "></path>
    <path style=" stroke:none;fill-rule:evenodd;fill:#052657;fill-opacity:1;" d="M 417.925781 479.148438 L 417.925781 465.714844 C 417.925781 463.347656 419.78125 461.4375 422.140625 461.4375 L 434.300781 461.4375 C 436.660156 461.4375 438.515625 463.347656 438.515625 465.714844 L 438.515625 479.148438 C 438.515625 481.5 436.652344 483.355469 434.300781 483.355469 L 422.140625 483.355469 C 419.78125 483.355469 417.925781 481.5 417.925781 479.148438 Z M 417.925781 479.148438 "></path>
    <path style=" stroke:none;fill-rule:evenodd;fill:#052657;fill-opacity:1;" d="M 369.378906 378.820312 C 367.058594 378.820312 365.160156 380.730469 365.160156 383.039062 L 365.160156 395.25 C 365.160156 397.558594 367.058594 399.457031 369.378906 399.457031 L 417.925781 399.457031 L 417.925781 444.800781 C 417.925781 447.152344 419.78125 449.015625 422.140625 449.015625 L 434.300781 449.015625 C 436.660156 449.015625 438.515625 447.152344 438.515625 444.800781 L 438.515625 383.039062 C 438.515625 378.726562 435.015625 378.820312 433.019531 378.820312 Z M 369.378906 378.820312 "></path>
    <g clip-rule="nonzero" clip-path="url(#eb7c1e4eba)">
      <path style=" stroke:none;fill-rule:nonzero;fill:#052657;fill-opacity:1;" d="M 319.785156 205.878906 L 537.109375 206.152344 C 545.742188 206.152344 552.351562 212.769531 552.351562 221.535156 C 552.265625 293 552.074219 326.5625 552.074219 386.402344 C 551.570312 394.164062 557.117188 399.886719 561.875 404.789062 L 602.929688 447.117188 C 608.339844 454.058594 597.894531 462.179688 592.503906 455.234375 C 560.429688 423.160156 551.761719 416.21875 521.960938 393.132812 C 492.195312 369.980469 472.410156 373.980469 461.558594 385.824219 C 450.667969 397.613281 448.273438 418.71875 465.554688 438.816406 L 503.34375 483.277344 C 514.285156 495.984375 522.996094 508.136719 523.710938 519.714844 C 524.441406 531.285156 521.261719 541.902344 517.902344 552.390625 C 511.183594 573.394531 498.886719 594.265625 507.550781 626.652344 C 511.402344 635.363281 500.296875 640.171875 497.933594 630.964844 C 495.90625 625.015625 494.632812 619.535156 493.675781 614.132812 C 491.550781 601.660156 491.769531 589.8125 495.085938 580.554688 C 498.222656 571.9375 493.003906 565.359375 482.75 565.359375 L 319.367188 565.179688 C 308.390625 565.179688 304.175781 558.828125 304.175781 546.988281 L 304.488281 221.230469 C 304.496094 212.457031 311.160156 205.878906 319.785156 205.878906 Z M 319.785156 162.089844 C 296.96875 162.089844 278.222656 180.914062 278.222656 203.789062 L 278.144531 262.625 C 274.511719 263.3125 270.890625 264.769531 267.394531 267.023438 C 258.230469 272.972656 252.089844 283.582031 251.550781 294.507812 C 250.976562 305.457031 255.785156 314.707031 263.808594 319.335938 L 278.101562 327.644531 L 278.101562 335.945312 L 269.964844 331.257812 C 260.132812 325.597656 250.730469 328.28125 242.335938 332.941406 C 232.769531 338.203125 227.003906 349.597656 226.453125 360.527344 C 225.878906 371.453125 230.679688 380.675781 238.753906 385.355469 L 277.996094 408.082031 L 277.996094 416.0625 C 275.234375 416.75 272.464844 417.742188 269.792969 419.511719 C 261.898438 424.730469 256.5 434.128906 255.898438 443.554688 C 255.324219 453.050781 259.304688 460.800781 265.933594 464.660156 L 277.953125 471.585938 L 277.816406 590.464844 C 277.769531 613.289062 296.507812 632.15625 319.367188 632.210938 L 435.015625 632.382812 L 454.257812 662.0625 C 459.066406 669.492188 467.230469 675.269531 479.570312 670.625 L 628.976562 614.457031 C 650.832031 606.242188 644.898438 588.722656 645.351562 573.488281 L 649.253906 452.34375 C 649.761719 435.320312 645.214844 421.304688 636.050781 407.785156 L 578.425781 325.125 L 578.609375 204.078125 C 578.609375 181.246094 559.914062 162.429688 537.082031 162.429688 Z M 319.785156 162.089844 "></path>
    </g>
    <path style=" stroke:none;fill-rule:nonzero;fill:#052657;fill-opacity:1;" d="M 665.457031 628.367188 C 673.402344 649.648438 672.808594 661.898438 666.6875 671.289062 C 660.511719 680.636719 647.035156 688.300781 626.535156 696.011719 L 546.140625 726.273438 C 525.628906 733.980469 510.46875 737.117188 499.6875 734.121094 C 488.882812 731.082031 480.582031 722.144531 472.324219 700.957031 C 470.101562 695.226562 468.054688 689.066406 479.675781 684.710938 L 646.773438 621.921875 C 660.605469 616.703125 663.453125 623.046875 665.457031 628.367188 Z M 665.457031 628.367188 "></path>
    <path style=" stroke:none;fill-rule:evenodd;fill:#052657;fill-opacity:1;" d="M 417.925781 312.636719 L 417.925781 299.167969 C 417.925781 296.808594 419.78125 294.933594 422.140625 294.933594 L 434.300781 294.933594 C 436.660156 294.933594 438.515625 296.808594 438.515625 299.167969 L 438.515625 312.636719 C 438.515625 314.953125 436.652344 316.851562 434.300781 316.851562 L 422.140625 316.851562 C 419.78125 316.851562 417.925781 314.945312 417.925781 312.636719 Z M 417.925781 312.636719 "></path>
    <path style=" stroke:none;fill-rule:evenodd;fill:#052657;fill-opacity:1;" d="M 417.925781 354.554688 L 417.925781 341.121094 C 417.925781 338.757812 419.78125 336.914062 422.140625 336.914062 L 434.300781 336.914062 C 436.660156 336.914062 438.515625 338.769531 438.515625 341.121094 L 438.515625 354.554688 C 438.515625 356.90625 436.652344 358.8125 434.300781 358.8125 L 422.140625 358.8125 C 419.78125 358.8125 417.925781 356.90625 417.925781 354.554688 Z M 417.925781 354.554688 "></path>
    <path style=" stroke:none;fill-rule:evenodd;fill:#052657;fill-opacity:1;" d="M 333.984375 395.886719 L 333.984375 382.410156 C 333.984375 380.09375 335.890625 378.1875 338.191406 378.1875 L 350.402344 378.1875 C 352.710938 378.1875 354.621094 380.101562 354.621094 382.410156 L 354.621094 395.886719 C 354.621094 398.246094 352.710938 400.101562 350.402344 400.101562 L 338.191406 400.101562 C 335.890625 400.101562 333.984375 398.246094 333.984375 395.886719 Z M 333.984375 395.886719 "></path>
  </g>
</svg>
