<?xml version="1.0" encoding="UTF-8"?>
<svg xmlns="http://www.w3.org/2000/svg" xmlns:xlink="http://www.w3.org/1999/xlink" width="1200" zoomAndPan="magnify" viewBox="0 0 900 899.99999" height="1200" preserveAspectRatio="xMidYMid meet" version="1.2">
  <defs>
    <clipPath id="b18229b23c">
      <path d="M 27.796875 27.796875 L 872.203125 27.796875 L 872.203125 872.203125 L 27.796875 872.203125 Z M 27.796875 27.796875 "></path>
    </clipPath>
    <clipPath id="565e876543">
      <path d="M 450 872.203125 C 683.835938 872.203125 872.203125 683.835938 872.203125 450 C 872.203125 216.164062 683.835938 27.796875 450 27.796875 C 218.328125 27.796875 27.796875 216.164062 27.796875 450 C 27.796875 683.835938 218.328125 872.203125 450 872.203125 Z M 450 92.75 C 647.027344 92.75 807.25 252.972656 807.25 450 C 807.25 647.027344 647.027344 807.25 450 807.25 C 252.972656 807.25 92.75 647.027344 92.75 450 C 92.75 252.972656 252.972656 92.75 450 92.75 Z M 450 92.75 "></path>
    </clipPath>
    <linearGradient x1="0.00000917451" gradientTransform="matrix(-3.298463,0,0,-3.298463,872.202995,872.203133)" y1="128" x2="255.999998" gradientUnits="userSpaceOnUse" y2="128" id="cedf21dcd5">
      <stop style="stop-color:#a0e05b;stop-opacity:1;" offset="0"></stop>
      <stop style="stop-color:#9fe05b;stop-opacity:1;" offset="0.00390625"></stop>
      <stop style="stop-color:#9fdf5b;stop-opacity:1;" offset="0.0078125"></stop>
      <stop style="stop-color:#9edf5b;stop-opacity:1;" offset="0.0117187"></stop>
      <stop style="stop-color:#9ddf5a;stop-opacity:1;" offset="0.015625"></stop>
      <stop style="stop-color:#9dde5a;stop-opacity:1;" offset="0.0195312"></stop>
      <stop style="stop-color:#9cde5a;stop-opacity:1;" offset="0.0234375"></stop>
      <stop style="stop-color:#9bde5a;stop-opacity:1;" offset="0.0273437"></stop>
      <stop style="stop-color:#9bdd5a;stop-opacity:1;" offset="0.03125"></stop>
      <stop style="stop-color:#9add5a;stop-opacity:1;" offset="0.0351562"></stop>
      <stop style="stop-color:#99dd59;stop-opacity:1;" offset="0.0390625"></stop>
      <stop style="stop-color:#99dc59;stop-opacity:1;" offset="0.0429687"></stop>
      <stop style="stop-color:#98dc59;stop-opacity:1;" offset="0.046875"></stop>
      <stop style="stop-color:#97dc59;stop-opacity:1;" offset="0.0507812"></stop>
      <stop style="stop-color:#97dc59;stop-opacity:1;" offset="0.0546875"></stop>
      <stop style="stop-color:#96db59;stop-opacity:1;" offset="0.0585937"></stop>
      <stop style="stop-color:#96db58;stop-opacity:1;" offset="0.0625"></stop>
      <stop style="stop-color:#95db58;stop-opacity:1;" offset="0.0664062"></stop>
      <stop style="stop-color:#94da58;stop-opacity:1;" offset="0.0703125"></stop>
      <stop style="stop-color:#94da58;stop-opacity:1;" offset="0.0742187"></stop>
      <stop style="stop-color:#93da58;stop-opacity:1;" offset="0.078125"></stop>
      <stop style="stop-color:#92d958;stop-opacity:1;" offset="0.0820312"></stop>
      <stop style="stop-color:#92d957;stop-opacity:1;" offset="0.0859375"></stop>
      <stop style="stop-color:#91d957;stop-opacity:1;" offset="0.0898437"></stop>
      <stop style="stop-color:#90d857;stop-opacity:1;" offset="0.09375"></stop>
      <stop style="stop-color:#90d857;stop-opacity:1;" offset="0.0976562"></stop>
      <stop style="stop-color:#8fd857;stop-opacity:1;" offset="0.101562"></stop>
      <stop style="stop-color:#8ed757;stop-opacity:1;" offset="0.105469"></stop>
      <stop style="stop-color:#8ed756;stop-opacity:1;" offset="0.109375"></stop>
      <stop style="stop-color:#8dd756;stop-opacity:1;" offset="0.113281"></stop>
      <stop style="stop-color:#8cd756;stop-opacity:1;" offset="0.117187"></stop>
      <stop style="stop-color:#8cd656;stop-opacity:1;" offset="0.121094"></stop>
      <stop style="stop-color:#8bd656;stop-opacity:1;" offset="0.125"></stop>
      <stop style="stop-color:#8bd656;stop-opacity:1;" offset="0.128906"></stop>
      <stop style="stop-color:#8ad555;stop-opacity:1;" offset="0.132812"></stop>
      <stop style="stop-color:#89d555;stop-opacity:1;" offset="0.136719"></stop>
      <stop style="stop-color:#89d555;stop-opacity:1;" offset="0.140625"></stop>
      <stop style="stop-color:#88d455;stop-opacity:1;" offset="0.144531"></stop>
      <stop style="stop-color:#87d455;stop-opacity:1;" offset="0.148437"></stop>
      <stop style="stop-color:#87d455;stop-opacity:1;" offset="0.152344"></stop>
      <stop style="stop-color:#86d354;stop-opacity:1;" offset="0.15625"></stop>
      <stop style="stop-color:#85d354;stop-opacity:1;" offset="0.160156"></stop>
      <stop style="stop-color:#85d354;stop-opacity:1;" offset="0.164062"></stop>
      <stop style="stop-color:#84d354;stop-opacity:1;" offset="0.167969"></stop>
      <stop style="stop-color:#83d254;stop-opacity:1;" offset="0.171875"></stop>
      <stop style="stop-color:#83d254;stop-opacity:1;" offset="0.175781"></stop>
      <stop style="stop-color:#82d254;stop-opacity:1;" offset="0.179687"></stop>
      <stop style="stop-color:#81d153;stop-opacity:1;" offset="0.183594"></stop>
      <stop style="stop-color:#81d153;stop-opacity:1;" offset="0.1875"></stop>
      <stop style="stop-color:#80d153;stop-opacity:1;" offset="0.191406"></stop>
      <stop style="stop-color:#80d053;stop-opacity:1;" offset="0.195312"></stop>
      <stop style="stop-color:#7fd053;stop-opacity:1;" offset="0.199219"></stop>
      <stop style="stop-color:#7ed053;stop-opacity:1;" offset="0.203125"></stop>
      <stop style="stop-color:#7ecf52;stop-opacity:1;" offset="0.207031"></stop>
      <stop style="stop-color:#7dcf52;stop-opacity:1;" offset="0.210937"></stop>
      <stop style="stop-color:#7ccf52;stop-opacity:1;" offset="0.214844"></stop>
      <stop style="stop-color:#7cce52;stop-opacity:1;" offset="0.21875"></stop>
      <stop style="stop-color:#7bce52;stop-opacity:1;" offset="0.222656"></stop>
      <stop style="stop-color:#7ace52;stop-opacity:1;" offset="0.226562"></stop>
      <stop style="stop-color:#7ace51;stop-opacity:1;" offset="0.230469"></stop>
      <stop style="stop-color:#79cd51;stop-opacity:1;" offset="0.234375"></stop>
      <stop style="stop-color:#78cd51;stop-opacity:1;" offset="0.238281"></stop>
      <stop style="stop-color:#78cd51;stop-opacity:1;" offset="0.242187"></stop>
      <stop style="stop-color:#77cc51;stop-opacity:1;" offset="0.246094"></stop>
      <stop style="stop-color:#76cc51;stop-opacity:1;" offset="0.25"></stop>
      <stop style="stop-color:#76cc50;stop-opacity:1;" offset="0.253906"></stop>
      <stop style="stop-color:#75cb50;stop-opacity:1;" offset="0.257812"></stop>
      <stop style="stop-color:#75cb50;stop-opacity:1;" offset="0.261719"></stop>
      <stop style="stop-color:#74cb50;stop-opacity:1;" offset="0.265625"></stop>
      <stop style="stop-color:#73ca50;stop-opacity:1;" offset="0.269531"></stop>
      <stop style="stop-color:#73ca50;stop-opacity:1;" offset="0.273437"></stop>
      <stop style="stop-color:#72ca4f;stop-opacity:1;" offset="0.277344"></stop>
      <stop style="stop-color:#71ca4f;stop-opacity:1;" offset="0.28125"></stop>
      <stop style="stop-color:#71c94f;stop-opacity:1;" offset="0.285156"></stop>
      <stop style="stop-color:#70c94f;stop-opacity:1;" offset="0.289062"></stop>
      <stop style="stop-color:#6fc94f;stop-opacity:1;" offset="0.292969"></stop>
      <stop style="stop-color:#6fc84f;stop-opacity:1;" offset="0.296875"></stop>
      <stop style="stop-color:#6ec84e;stop-opacity:1;" offset="0.300781"></stop>
      <stop style="stop-color:#6dc84e;stop-opacity:1;" offset="0.304687"></stop>
      <stop style="stop-color:#6dc74e;stop-opacity:1;" offset="0.308594"></stop>
      <stop style="stop-color:#6cc74e;stop-opacity:1;" offset="0.3125"></stop>
      <stop style="stop-color:#6bc74e;stop-opacity:1;" offset="0.316406"></stop>
      <stop style="stop-color:#6bc64e;stop-opacity:1;" offset="0.320312"></stop>
      <stop style="stop-color:#6ac64d;stop-opacity:1;" offset="0.324219"></stop>
      <stop style="stop-color:#69c64d;stop-opacity:1;" offset="0.328125"></stop>
      <stop style="stop-color:#69c54d;stop-opacity:1;" offset="0.332031"></stop>
      <stop style="stop-color:#68c54d;stop-opacity:1;" offset="0.335937"></stop>
      <stop style="stop-color:#68c54d;stop-opacity:1;" offset="0.339844"></stop>
      <stop style="stop-color:#67c54d;stop-opacity:1;" offset="0.34375"></stop>
      <stop style="stop-color:#66c44c;stop-opacity:1;" offset="0.347656"></stop>
      <stop style="stop-color:#66c44c;stop-opacity:1;" offset="0.351562"></stop>
      <stop style="stop-color:#65c44c;stop-opacity:1;" offset="0.355469"></stop>
      <stop style="stop-color:#64c34c;stop-opacity:1;" offset="0.359375"></stop>
      <stop style="stop-color:#64c34c;stop-opacity:1;" offset="0.363281"></stop>
      <stop style="stop-color:#63c34c;stop-opacity:1;" offset="0.367187"></stop>
      <stop style="stop-color:#62c24c;stop-opacity:1;" offset="0.371094"></stop>
      <stop style="stop-color:#62c24b;stop-opacity:1;" offset="0.375"></stop>
      <stop style="stop-color:#61c24b;stop-opacity:1;" offset="0.378906"></stop>
      <stop style="stop-color:#60c14b;stop-opacity:1;" offset="0.382812"></stop>
      <stop style="stop-color:#60c14b;stop-opacity:1;" offset="0.386719"></stop>
      <stop style="stop-color:#5fc14b;stop-opacity:1;" offset="0.390625"></stop>
      <stop style="stop-color:#5ec04b;stop-opacity:1;" offset="0.394531"></stop>
      <stop style="stop-color:#5ec04a;stop-opacity:1;" offset="0.398437"></stop>
      <stop style="stop-color:#5dc04a;stop-opacity:1;" offset="0.402344"></stop>
      <stop style="stop-color:#5dc04a;stop-opacity:1;" offset="0.40625"></stop>
      <stop style="stop-color:#5cbf4a;stop-opacity:1;" offset="0.410156"></stop>
      <stop style="stop-color:#5bbf4a;stop-opacity:1;" offset="0.414062"></stop>
      <stop style="stop-color:#5bbf4a;stop-opacity:1;" offset="0.417969"></stop>
      <stop style="stop-color:#5abe49;stop-opacity:1;" offset="0.421875"></stop>
      <stop style="stop-color:#59be49;stop-opacity:1;" offset="0.425781"></stop>
      <stop style="stop-color:#59be49;stop-opacity:1;" offset="0.429687"></stop>
      <stop style="stop-color:#58bd49;stop-opacity:1;" offset="0.433594"></stop>
      <stop style="stop-color:#57bd49;stop-opacity:1;" offset="0.4375"></stop>
      <stop style="stop-color:#57bd49;stop-opacity:1;" offset="0.441406"></stop>
      <stop style="stop-color:#56bc48;stop-opacity:1;" offset="0.445312"></stop>
      <stop style="stop-color:#55bc48;stop-opacity:1;" offset="0.449219"></stop>
      <stop style="stop-color:#55bc48;stop-opacity:1;" offset="0.453125"></stop>
      <stop style="stop-color:#54bc48;stop-opacity:1;" offset="0.457031"></stop>
      <stop style="stop-color:#53bb48;stop-opacity:1;" offset="0.460937"></stop>
      <stop style="stop-color:#53bb48;stop-opacity:1;" offset="0.464844"></stop>
      <stop style="stop-color:#52bb47;stop-opacity:1;" offset="0.46875"></stop>
      <stop style="stop-color:#52ba47;stop-opacity:1;" offset="0.472656"></stop>
      <stop style="stop-color:#51ba47;stop-opacity:1;" offset="0.476562"></stop>
      <stop style="stop-color:#50ba47;stop-opacity:1;" offset="0.480469"></stop>
      <stop style="stop-color:#50b947;stop-opacity:1;" offset="0.484375"></stop>
      <stop style="stop-color:#4fb947;stop-opacity:1;" offset="0.488281"></stop>
      <stop style="stop-color:#4eb946;stop-opacity:1;" offset="0.492187"></stop>
      <stop style="stop-color:#4eb846;stop-opacity:1;" offset="0.496094"></stop>
      <stop style="stop-color:#4db846;stop-opacity:1;" offset="0.5"></stop>
      <stop style="stop-color:#4cb746;stop-opacity:1;" offset="0.503906"></stop>
      <stop style="stop-color:#4cb646;stop-opacity:1;" offset="0.507812"></stop>
      <stop style="stop-color:#4bb547;stop-opacity:1;" offset="0.511719"></stop>
      <stop style="stop-color:#4bb447;stop-opacity:1;" offset="0.515625"></stop>
      <stop style="stop-color:#4ab247;stop-opacity:1;" offset="0.519531"></stop>
      <stop style="stop-color:#4ab147;stop-opacity:1;" offset="0.523437"></stop>
      <stop style="stop-color:#49b047;stop-opacity:1;" offset="0.527344"></stop>
      <stop style="stop-color:#49af47;stop-opacity:1;" offset="0.53125"></stop>
      <stop style="stop-color:#48ae47;stop-opacity:1;" offset="0.535156"></stop>
      <stop style="stop-color:#47ad47;stop-opacity:1;" offset="0.539062"></stop>
      <stop style="stop-color:#47ac48;stop-opacity:1;" offset="0.542969"></stop>
      <stop style="stop-color:#46aa48;stop-opacity:1;" offset="0.546875"></stop>
      <stop style="stop-color:#46a948;stop-opacity:1;" offset="0.550781"></stop>
      <stop style="stop-color:#45a848;stop-opacity:1;" offset="0.554687"></stop>
      <stop style="stop-color:#45a748;stop-opacity:1;" offset="0.558594"></stop>
      <stop style="stop-color:#44a648;stop-opacity:1;" offset="0.5625"></stop>
      <stop style="stop-color:#43a548;stop-opacity:1;" offset="0.566406"></stop>
      <stop style="stop-color:#43a448;stop-opacity:1;" offset="0.570312"></stop>
      <stop style="stop-color:#42a249;stop-opacity:1;" offset="0.574219"></stop>
      <stop style="stop-color:#42a149;stop-opacity:1;" offset="0.578125"></stop>
      <stop style="stop-color:#41a049;stop-opacity:1;" offset="0.582031"></stop>
      <stop style="stop-color:#419f49;stop-opacity:1;" offset="0.585937"></stop>
      <stop style="stop-color:#409e49;stop-opacity:1;" offset="0.589844"></stop>
      <stop style="stop-color:#409d49;stop-opacity:1;" offset="0.59375"></stop>
      <stop style="stop-color:#3f9c49;stop-opacity:1;" offset="0.597656"></stop>
      <stop style="stop-color:#3e9a4a;stop-opacity:1;" offset="0.601562"></stop>
      <stop style="stop-color:#3e994a;stop-opacity:1;" offset="0.605469"></stop>
      <stop style="stop-color:#3d984a;stop-opacity:1;" offset="0.609375"></stop>
      <stop style="stop-color:#3d974a;stop-opacity:1;" offset="0.613281"></stop>
      <stop style="stop-color:#3c964a;stop-opacity:1;" offset="0.617187"></stop>
      <stop style="stop-color:#3c954a;stop-opacity:1;" offset="0.621094"></stop>
      <stop style="stop-color:#3b944a;stop-opacity:1;" offset="0.625"></stop>
      <stop style="stop-color:#3a924a;stop-opacity:1;" offset="0.628906"></stop>
      <stop style="stop-color:#3a914b;stop-opacity:1;" offset="0.632812"></stop>
      <stop style="stop-color:#39904b;stop-opacity:1;" offset="0.636719"></stop>
      <stop style="stop-color:#398f4b;stop-opacity:1;" offset="0.640625"></stop>
      <stop style="stop-color:#388e4b;stop-opacity:1;" offset="0.644531"></stop>
      <stop style="stop-color:#388d4b;stop-opacity:1;" offset="0.648437"></stop>
      <stop style="stop-color:#378c4b;stop-opacity:1;" offset="0.652344"></stop>
      <stop style="stop-color:#378a4b;stop-opacity:1;" offset="0.65625"></stop>
      <stop style="stop-color:#36894c;stop-opacity:1;" offset="0.660156"></stop>
      <stop style="stop-color:#35884c;stop-opacity:1;" offset="0.664062"></stop>
      <stop style="stop-color:#35874c;stop-opacity:1;" offset="0.667969"></stop>
      <stop style="stop-color:#34864c;stop-opacity:1;" offset="0.671875"></stop>
      <stop style="stop-color:#34854c;stop-opacity:1;" offset="0.675781"></stop>
      <stop style="stop-color:#33844c;stop-opacity:1;" offset="0.679687"></stop>
      <stop style="stop-color:#33824c;stop-opacity:1;" offset="0.683594"></stop>
      <stop style="stop-color:#32814c;stop-opacity:1;" offset="0.6875"></stop>
      <stop style="stop-color:#31804d;stop-opacity:1;" offset="0.691406"></stop>
      <stop style="stop-color:#317f4d;stop-opacity:1;" offset="0.695312"></stop>
      <stop style="stop-color:#307e4d;stop-opacity:1;" offset="0.699219"></stop>
      <stop style="stop-color:#307d4d;stop-opacity:1;" offset="0.703125"></stop>
      <stop style="stop-color:#2f7c4d;stop-opacity:1;" offset="0.707031"></stop>
      <stop style="stop-color:#2f7a4d;stop-opacity:1;" offset="0.710937"></stop>
      <stop style="stop-color:#2e794d;stop-opacity:1;" offset="0.714844"></stop>
      <stop style="stop-color:#2e784d;stop-opacity:1;" offset="0.71875"></stop>
      <stop style="stop-color:#2d774e;stop-opacity:1;" offset="0.722656"></stop>
      <stop style="stop-color:#2c764e;stop-opacity:1;" offset="0.726562"></stop>
      <stop style="stop-color:#2c754e;stop-opacity:1;" offset="0.730469"></stop>
      <stop style="stop-color:#2b744e;stop-opacity:1;" offset="0.734375"></stop>
      <stop style="stop-color:#2b724e;stop-opacity:1;" offset="0.738281"></stop>
      <stop style="stop-color:#2a714e;stop-opacity:1;" offset="0.742187"></stop>
      <stop style="stop-color:#2a704e;stop-opacity:1;" offset="0.746094"></stop>
      <stop style="stop-color:#296f4f;stop-opacity:1;" offset="0.75"></stop>
      <stop style="stop-color:#286e4f;stop-opacity:1;" offset="0.753906"></stop>
      <stop style="stop-color:#286d4f;stop-opacity:1;" offset="0.757812"></stop>
      <stop style="stop-color:#276c4f;stop-opacity:1;" offset="0.761719"></stop>
      <stop style="stop-color:#276a4f;stop-opacity:1;" offset="0.765625"></stop>
      <stop style="stop-color:#26694f;stop-opacity:1;" offset="0.769531"></stop>
      <stop style="stop-color:#26684f;stop-opacity:1;" offset="0.773437"></stop>
      <stop style="stop-color:#25674f;stop-opacity:1;" offset="0.777344"></stop>
      <stop style="stop-color:#256650;stop-opacity:1;" offset="0.78125"></stop>
      <stop style="stop-color:#246550;stop-opacity:1;" offset="0.785156"></stop>
      <stop style="stop-color:#236450;stop-opacity:1;" offset="0.789062"></stop>
      <stop style="stop-color:#236250;stop-opacity:1;" offset="0.792969"></stop>
      <stop style="stop-color:#226150;stop-opacity:1;" offset="0.796875"></stop>
      <stop style="stop-color:#226050;stop-opacity:1;" offset="0.800781"></stop>
      <stop style="stop-color:#215f50;stop-opacity:1;" offset="0.804687"></stop>
      <stop style="stop-color:#215e51;stop-opacity:1;" offset="0.808594"></stop>
      <stop style="stop-color:#205d51;stop-opacity:1;" offset="0.8125"></stop>
      <stop style="stop-color:#205c51;stop-opacity:1;" offset="0.816406"></stop>
      <stop style="stop-color:#1f5b51;stop-opacity:1;" offset="0.820312"></stop>
      <stop style="stop-color:#1e5951;stop-opacity:1;" offset="0.824219"></stop>
      <stop style="stop-color:#1e5851;stop-opacity:1;" offset="0.828125"></stop>
      <stop style="stop-color:#1d5751;stop-opacity:1;" offset="0.832031"></stop>
      <stop style="stop-color:#1d5651;stop-opacity:1;" offset="0.835937"></stop>
      <stop style="stop-color:#1c5552;stop-opacity:1;" offset="0.839844"></stop>
      <stop style="stop-color:#1c5452;stop-opacity:1;" offset="0.84375"></stop>
      <stop style="stop-color:#1b5352;stop-opacity:1;" offset="0.847656"></stop>
      <stop style="stop-color:#1a5152;stop-opacity:1;" offset="0.851562"></stop>
      <stop style="stop-color:#1a5052;stop-opacity:1;" offset="0.855469"></stop>
      <stop style="stop-color:#194f52;stop-opacity:1;" offset="0.859375"></stop>
      <stop style="stop-color:#194e52;stop-opacity:1;" offset="0.863281"></stop>
      <stop style="stop-color:#184d52;stop-opacity:1;" offset="0.867187"></stop>
      <stop style="stop-color:#184c53;stop-opacity:1;" offset="0.871094"></stop>
      <stop style="stop-color:#174b53;stop-opacity:1;" offset="0.875"></stop>
      <stop style="stop-color:#174953;stop-opacity:1;" offset="0.878906"></stop>
      <stop style="stop-color:#164853;stop-opacity:1;" offset="0.882812"></stop>
      <stop style="stop-color:#154753;stop-opacity:1;" offset="0.886719"></stop>
      <stop style="stop-color:#154653;stop-opacity:1;" offset="0.890625"></stop>
      <stop style="stop-color:#144553;stop-opacity:1;" offset="0.894531"></stop>
      <stop style="stop-color:#144454;stop-opacity:1;" offset="0.898437"></stop>
      <stop style="stop-color:#134354;stop-opacity:1;" offset="0.902344"></stop>
      <stop style="stop-color:#134154;stop-opacity:1;" offset="0.90625"></stop>
      <stop style="stop-color:#124054;stop-opacity:1;" offset="0.910156"></stop>
      <stop style="stop-color:#113f54;stop-opacity:1;" offset="0.914062"></stop>
      <stop style="stop-color:#113e54;stop-opacity:1;" offset="0.917969"></stop>
      <stop style="stop-color:#103d54;stop-opacity:1;" offset="0.921875"></stop>
      <stop style="stop-color:#103c54;stop-opacity:1;" offset="0.925781"></stop>
      <stop style="stop-color:#0f3b55;stop-opacity:1;" offset="0.929687"></stop>
      <stop style="stop-color:#0f3955;stop-opacity:1;" offset="0.933594"></stop>
      <stop style="stop-color:#0e3855;stop-opacity:1;" offset="0.9375"></stop>
      <stop style="stop-color:#0e3755;stop-opacity:1;" offset="0.941406"></stop>
      <stop style="stop-color:#0d3655;stop-opacity:1;" offset="0.945312"></stop>
      <stop style="stop-color:#0c3555;stop-opacity:1;" offset="0.949219"></stop>
      <stop style="stop-color:#0c3455;stop-opacity:1;" offset="0.953125"></stop>
      <stop style="stop-color:#0b3356;stop-opacity:1;" offset="0.957031"></stop>
      <stop style="stop-color:#0b3156;stop-opacity:1;" offset="0.960938"></stop>
      <stop style="stop-color:#0a3056;stop-opacity:1;" offset="0.964844"></stop>
      <stop style="stop-color:#0a2f56;stop-opacity:1;" offset="0.96875"></stop>
      <stop style="stop-color:#092e56;stop-opacity:1;" offset="0.972656"></stop>
      <stop style="stop-color:#082d56;stop-opacity:1;" offset="0.976562"></stop>
      <stop style="stop-color:#082c56;stop-opacity:1;" offset="0.980469"></stop>
      <stop style="stop-color:#072b56;stop-opacity:1;" offset="0.984375"></stop>
      <stop style="stop-color:#072957;stop-opacity:1;" offset="0.988281"></stop>
      <stop style="stop-color:#062857;stop-opacity:1;" offset="0.992188"></stop>
      <stop style="stop-color:#062757;stop-opacity:1;" offset="0.996094"></stop>
      <stop style="stop-color:#052657;stop-opacity:1;" offset="1"></stop>
    </linearGradient>
    <clipPath id="adc417b393">
      <path d="M 92 92 L 808 92 L 808 808 L 92 808 Z M 92 92 "></path>
    </clipPath>
    <clipPath id="7ccd8dffee">
      <path d="M 450 807.25 C 647.027344 807.25 807.25 647.027344 807.25 450 C 807.25 252.972656 647.027344 92.75 450 92.75 C 252.972656 92.75 92.75 252.972656 92.75 450 C 92.75 647.027344 252.972656 807.25 450 807.25 Z M 450 807.25 "></path>
    </clipPath>
    <clipPath id="f1a12d2e8b">
      <path d="M 209.328125 233 L 457 233 L 457 685 L 209.328125 685 Z M 209.328125 233 "></path>
    </clipPath>
    <clipPath id="6c4c0d7760">
      <path d="M 297 159.101562 L 498 159.101562 L 498 305 L 297 305 Z M 297 159.101562 "></path>
    </clipPath>
  </defs>
  <g id="729363b098">
    <g clip-rule="nonzero" clip-path="url(#b18229b23c)">
      <g clip-rule="nonzero" clip-path="url(#565e876543)">
        <path style=" stroke:none;fill-rule:nonzero;fill:url(#cedf21dcd5);" d="M 872.203125 872.203125 L 872.203125 27.796875 L 27.796875 27.796875 L 27.796875 872.203125 Z M 872.203125 872.203125 "></path>
      </g>
    </g>
    <g clip-rule="nonzero" clip-path="url(#adc417b393)">
      <g clip-rule="nonzero" clip-path="url(#7ccd8dffee)">
        <path style=" stroke:none;fill-rule:nonzero;fill:#fafffc;fill-opacity:1;" d="M 872.203125 872.203125 L 27.796875 872.203125 L 27.796875 27.796875 L 872.203125 27.796875 Z M 872.203125 872.203125 "></path>
      </g>
    </g>
    <g clip-rule="nonzero" clip-path="url(#f1a12d2e8b)">
      <path style=" stroke:none;fill-rule:evenodd;fill:#052657;fill-opacity:1;" d="M 447.855469 684.554688 L 218.527344 684.554688 C 213.507812 684.554688 209.433594 680.484375 209.433594 675.464844 L 209.433594 243.046875 C 209.433594 238.027344 213.507812 233.957031 218.527344 233.957031 L 306.230469 233.957031 C 311.25 233.957031 315.320312 238.027344 315.320312 243.046875 C 315.320312 248.070312 311.25 252.140625 306.230469 252.140625 L 227.617188 252.140625 L 227.617188 666.371094 L 447.855469 666.371094 C 452.875 666.371094 456.945312 670.441406 456.945312 675.464844 C 456.945312 680.484375 452.875 684.554688 447.855469 684.554688 Z M 447.855469 684.554688 "></path>
    </g>
    <path style=" stroke:none;fill-rule:evenodd;fill:#052657;fill-opacity:1;" d="M 576.589844 521.074219 C 571.566406 521.074219 567.496094 517.003906 567.496094 511.984375 L 567.496094 252.140625 L 488.886719 252.140625 C 483.867188 252.140625 479.796875 248.070312 479.796875 243.046875 C 479.796875 238.027344 483.867188 233.957031 488.886719 233.957031 L 576.589844 233.957031 C 581.609375 233.957031 585.679688 238.027344 585.679688 243.046875 L 585.679688 511.984375 C 585.679688 517.003906 581.609375 521.074219 576.589844 521.074219 Z M 576.589844 521.074219 "></path>
    <g clip-rule="nonzero" clip-path="url(#6c4c0d7760)">
      <path style=" stroke:none;fill-rule:evenodd;fill:#052657;fill-opacity:1;" d="M 488.886719 304.839844 L 306.226562 304.839844 C 301.207031 304.839844 297.136719 300.769531 297.136719 295.75 L 297.136719 220.105469 C 297.136719 215.082031 301.207031 211.011719 306.226562 211.011719 L 337.265625 211.011719 C 341.667969 181.6875 367.027344 159.132812 397.558594 159.132812 C 428.089844 159.132812 453.449219 181.6875 457.851562 211.011719 L 488.886719 211.011719 C 493.90625 211.011719 497.976562 215.082031 497.976562 220.105469 L 497.976562 295.75 C 497.976562 300.769531 493.90625 304.839844 488.886719 304.839844 Z M 315.320312 286.65625 L 479.792969 286.65625 L 479.792969 229.195312 L 449.4375 229.195312 C 444.414062 229.195312 440.34375 225.125 440.34375 220.105469 C 440.34375 196.511719 421.152344 177.316406 397.558594 177.316406 C 373.964844 177.316406 354.769531 196.511719 354.769531 220.105469 C 354.769531 225.125 350.699219 229.195312 345.675781 229.195312 L 315.316406 229.195312 L 315.316406 286.65625 Z M 315.320312 286.65625 "></path>
    </g>
    <path style=" stroke:none;fill-rule:evenodd;fill:#052657;fill-opacity:1;" d="M 435.320312 651.398438 L 252.390625 651.398438 C 247.371094 651.398438 243.300781 647.328125 243.300781 642.304688 L 243.300781 276.203125 C 243.300781 271.179688 247.371094 267.109375 252.390625 267.109375 L 306.230469 267.109375 C 311.25 267.109375 315.320312 271.179688 315.320312 276.203125 C 315.320312 281.222656 311.253906 285.292969 306.230469 285.292969 L 261.484375 285.292969 L 261.484375 633.214844 L 435.320312 633.214844 C 440.339844 633.214844 444.410156 637.285156 444.410156 642.304688 C 444.410156 647.328125 440.339844 651.398438 435.320312 651.398438 Z M 435.320312 651.398438 "></path>
    <path style=" stroke:none;fill-rule:evenodd;fill:#052657;fill-opacity:1;" d="M 542.722656 516.660156 C 537.699219 516.660156 533.628906 512.589844 533.628906 507.570312 L 533.628906 285.292969 L 488.886719 285.292969 C 483.867188 285.292969 479.796875 281.222656 479.796875 276.203125 C 479.796875 271.179688 483.867188 267.109375 488.886719 267.109375 L 542.722656 267.109375 C 547.742188 267.109375 551.8125 271.179688 551.8125 276.203125 L 551.8125 507.570312 C 551.8125 512.589844 547.746094 516.660156 542.722656 516.660156 Z M 542.722656 516.660156 "></path>
    <path style=" stroke:none;fill-rule:evenodd;fill:#052657;fill-opacity:1;" d="M 545.222656 740.988281 C 512.828125 740.988281 482.375 728.371094 459.472656 705.46875 C 436.566406 682.5625 423.953125 652.109375 423.953125 619.71875 C 423.953125 587.324219 436.566406 556.871094 459.472656 533.96875 C 482.378906 511.066406 512.832031 498.449219 545.222656 498.449219 C 577.613281 498.449219 608.066406 511.0625 630.972656 533.96875 C 653.875 556.875 666.488281 587.324219 666.488281 619.71875 C 666.488281 652.109375 653.875 682.5625 630.972656 705.46875 C 608.066406 728.371094 577.613281 740.988281 545.222656 740.988281 Z M 545.222656 516.632812 C 488.378906 516.632812 442.136719 562.875 442.136719 619.71875 C 442.136719 676.558594 488.378906 722.804688 545.222656 722.804688 C 602.0625 722.804688 648.308594 676.558594 648.308594 619.71875 C 648.308594 562.875 602.0625 516.632812 545.222656 516.632812 Z M 545.222656 516.632812 "></path>
    <path style=" stroke:none;fill-rule:evenodd;fill:#052657;fill-opacity:1;" d="M 545.222656 688.328125 C 507.390625 688.328125 476.613281 657.546875 476.613281 619.71875 C 476.613281 581.886719 507.390625 551.109375 545.222656 551.109375 C 583.054688 551.109375 613.832031 581.886719 613.832031 619.71875 C 613.832031 657.546875 583.050781 688.328125 545.222656 688.328125 Z M 545.222656 569.289062 C 517.417969 569.289062 494.792969 591.910156 494.792969 619.714844 C 494.792969 647.519531 517.414062 670.144531 545.222656 670.144531 C 573.027344 670.144531 595.648438 647.519531 595.648438 619.714844 C 595.648438 591.910156 573.027344 569.289062 545.222656 569.289062 Z M 545.222656 569.289062 "></path>
    <path style=" stroke:none;fill-rule:evenodd;fill:#052657;fill-opacity:1;" d="M 545.222656 628.808594 C 542.894531 628.808594 540.570312 627.921875 538.792969 626.144531 C 535.242188 622.59375 535.242188 616.839844 538.792969 613.289062 L 645.445312 506.636719 C 648.996094 503.085938 654.75 503.085938 658.304688 506.636719 C 661.851562 510.1875 661.851562 515.941406 658.304688 519.492188 L 551.652344 626.144531 C 549.875 627.921875 547.546875 628.808594 545.222656 628.808594 Z M 545.222656 628.808594 "></path>
    <path style=" stroke:none;fill-rule:evenodd;fill:#052657;fill-opacity:1;" d="M 678.558594 527.59375 C 677.957031 527.59375 677.347656 527.535156 676.746094 527.410156 L 650.058594 521.972656 C 646.488281 521.246094 643.695312 518.453125 642.964844 514.878906 L 637.527344 488.195312 C 636.917969 485.203125 637.847656 482.109375 640.007812 479.949219 L 667.128906 452.828125 C 669.496094 450.460938 672.972656 449.585938 676.175781 450.550781 C 679.378906 451.515625 681.796875 454.160156 682.464844 457.441406 L 686.703125 478.234375 L 707.496094 482.472656 C 710.777344 483.140625 713.425781 485.554688 714.390625 488.761719 C 715.351562 491.964844 714.476562 495.441406 712.113281 497.808594 L 684.988281 524.933594 C 683.265625 526.652344 680.945312 527.59375 678.558594 527.59375 Z M 659.582031 505.355469 L 675.585938 508.621094 L 687.292969 496.910156 L 677.183594 494.851562 C 673.609375 494.121094 670.816406 491.328125 670.089844 487.757812 L 668.027344 477.644531 L 656.320312 489.351562 Z M 659.582031 505.355469 "></path>
    <path style=" stroke:none;fill-rule:evenodd;fill:#052657;fill-opacity:1;" d="M 318.5625 395.363281 C 318.167969 395.363281 317.765625 395.339844 317.367188 395.285156 C 314.808594 394.945312 312.515625 393.535156 311.058594 391.40625 L 298.722656 373.363281 C 295.886719 369.21875 296.953125 363.5625 301.097656 360.726562 C 305.242188 357.894531 310.898438 358.953125 313.734375 363.101562 L 320.355469 372.785156 L 348.25 348.941406 C 352.066406 345.675781 357.804688 346.128906 361.066406 349.945312 C 364.328125 353.761719 363.878906 359.5 360.0625 362.761719 L 324.46875 393.183594 C 322.816406 394.597656 320.71875 395.363281 318.5625 395.363281 Z M 318.5625 395.363281 "></path>
    <path style=" stroke:none;fill-rule:evenodd;fill:#052657;fill-opacity:1;" d="M 318.5625 483.558594 C 318.167969 483.558594 317.765625 483.53125 317.367188 483.480469 C 314.808594 483.140625 312.515625 481.730469 311.058594 479.597656 L 298.722656 461.554688 C 295.886719 457.410156 296.953125 451.753906 301.097656 448.917969 C 305.242188 446.085938 310.898438 447.148438 313.734375 451.292969 L 320.355469 460.976562 L 348.25 437.132812 C 352.066406 433.871094 357.804688 434.320312 361.066406 438.136719 C 364.328125 441.953125 363.878906 447.691406 360.0625 450.953125 L 324.46875 481.375 C 322.816406 482.792969 320.71875 483.558594 318.5625 483.558594 Z M 318.5625 483.558594 "></path>
    <path style=" stroke:none;fill-rule:evenodd;fill:#052657;fill-opacity:1;" d="M 318.5625 571.75 C 318.167969 571.75 317.765625 571.726562 317.367188 571.671875 C 314.808594 571.332031 312.515625 569.921875 311.058594 567.789062 L 298.722656 549.746094 C 295.886719 545.601562 296.953125 539.945312 301.097656 537.109375 C 305.242188 534.273438 310.898438 535.339844 313.734375 539.484375 L 320.355469 549.167969 L 348.25 525.324219 C 352.066406 522.0625 357.804688 522.511719 361.066406 526.328125 C 364.328125 530.144531 363.878906 535.882812 360.0625 539.148438 L 324.46875 569.570312 C 322.816406 570.984375 320.71875 571.75 318.5625 571.75 Z M 318.5625 571.75 "></path>
    <path style=" stroke:none;fill-rule:evenodd;fill:#052657;fill-opacity:1;" d="M 479.40625 380.152344 L 397.558594 380.152344 C 392.535156 380.152344 388.464844 376.082031 388.464844 371.0625 C 388.464844 366.042969 392.535156 361.972656 397.558594 361.972656 L 479.40625 361.972656 C 484.425781 361.972656 488.5 366.042969 488.5 371.0625 C 488.5 376.082031 484.425781 380.152344 479.40625 380.152344 Z M 479.40625 380.152344 "></path>
    <path style=" stroke:none;fill-rule:evenodd;fill:#052657;fill-opacity:1;" d="M 479.40625 468.347656 L 397.558594 468.347656 C 392.535156 468.347656 388.464844 464.273438 388.464844 459.253906 C 388.464844 454.234375 392.535156 450.164062 397.558594 450.164062 L 479.40625 450.164062 C 484.425781 450.164062 488.5 454.234375 488.5 459.253906 C 488.5 464.273438 484.425781 468.347656 479.40625 468.347656 Z M 479.40625 468.347656 "></path>
    <path style=" stroke:none;fill-rule:evenodd;fill:#052657;fill-opacity:1;" d="M 459.425781 556.535156 L 397.554688 556.535156 C 392.535156 556.535156 388.464844 552.464844 388.464844 547.445312 C 388.464844 542.421875 392.535156 538.351562 397.554688 538.351562 L 459.425781 538.351562 C 464.445312 538.351562 468.519531 542.421875 468.519531 547.445312 C 468.519531 552.46875 464.445312 556.535156 459.425781 556.535156 Z M 459.425781 556.535156 "></path>
    <path style=" stroke:none;fill-rule:evenodd;fill:#052657;fill-opacity:1;" d="M 411.125 263.765625 L 383.984375 263.765625 C 378.964844 263.765625 374.894531 259.695312 374.894531 254.675781 C 374.894531 249.652344 378.964844 245.582031 383.984375 245.582031 L 411.125 245.582031 C 416.148438 245.582031 420.21875 249.652344 420.21875 254.675781 C 420.21875 259.695312 416.148438 263.765625 411.125 263.765625 Z M 411.125 263.765625 "></path>
  </g>
</svg>
